<?xml version="1.0" encoding="UTF-8"?>
<svg width="18px" height="18px" viewBox="0 0 18 18" version="1.1" xmlns="http://www.w3.org/2000/svg" xmlns:xlink="http://www.w3.org/1999/xlink">
    <!-- Generator: Sketch 52.6 (67491) - http://www.bohemiancoding.com/sketch -->
    <desc>Created with Sketch.</desc>
    <g id="icon-标签管理-高亮" stroke="none" stroke-width="1" fill-rule="evenodd">
        <g id="icon-标签管理" >
            <path d="M1,1.5 C1.55228475,1.5 2,1.94771525 2,2.5 L2,15.5 C2,16.0522847 1.55228475,16.5 1,16.5 C0.44771525,16.5 6.76353751e-17,16.0522847 0,15.5 L0,2.5 C-6.76353751e-17,1.94771525 0.44771525,1.5 1,1.5 Z M5,1.5 L17,1.5 C17.5522847,1.5 18,1.94771525 18,2.5 L18,3.5 C18,4.05228475 17.5522847,4.5 17,4.5 L5,4.5 C4.44771525,4.5 4,4.05228475 4,3.5 L4,2.5 C4,1.94771525 4.44771525,1.5 5,1.5 Z M5,7.5 L17,7.5 C17.5522847,7.5 18,7.94771525 18,8.5 L18,9.5 C18,10.0522847 17.5522847,10.5 17,10.5 L5,10.5 C4.44771525,10.5 4,10.0522847 4,9.5 L4,8.5 C4,7.94771525 4.44771525,7.5 5,7.5 Z M5,13.5 L17,13.5 C17.5522847,13.5 18,13.9477153 18,14.5 L18,15.5 C18,16.0522847 17.5522847,16.5 17,16.5 L5,16.5 C4.44771525,16.5 4,16.0522847 4,15.5 L4,14.5 C4,13.9477153 4.44771525,13.5 5,13.5 Z"></path>
        </g>
    </g>
</svg>