<?xml version="1.0" encoding="UTF-8"?>
<svg width="24px" height="24px" viewBox="0 0 24 24" version="1.1" xmlns="http://www.w3.org/2000/svg" xmlns:xlink="http://www.w3.org/1999/xlink">
    <g stroke="none" stroke-width="1" fill-rule="evenodd">
        <path d="M12,24 C5.38328852,24 0,18.6167115 0,12 C0,5.38328852 5.38328852,0 12,0 C18.6167115,0 24,5.38331252 24,12 C24,18.6166875 18.6166875,24 12,24 Z M12,2.2499985 C6.62402686,2.2499985 2.2499985,6.62402686 2.2499985,12 C2.2499985,17.3759731 6.62402686,21.7500015 12,21.7500015 C17.3759731,21.7500015 21.7500015,17.3759731 21.7500015,12 C21.7500015,6.62402686 17.3759731,2.2499985 12,2.2499985 Z M13.1337891,14.4160156 L11.390625,14.4160156 C11.3860677,14.1653633 11.3837891,14.0126956 11.3837891,13.9580078 C11.3837891,13.3929008 11.4772126,12.9280617 11.6640625,12.5634766 C11.8509124,12.1988914 12.2246066,11.7887393 12.7851562,11.3330078 C13.3457059,10.8772764 13.6806635,10.5787767 13.7900391,10.4375 C13.9586597,10.2141916 14.0429688,9.9681003 14.0429688,9.69921875 C14.0429688,9.32551896 13.8937189,9.00537243 13.5952148,8.73876953 C13.2967107,8.47216664 12.8945338,8.33886719 12.3886719,8.33886719 C11.9010392,8.33886719 11.4931657,8.47786319 11.1650391,8.75585938 C10.8369124,9.03385556 10.6113287,9.45767944 10.4882812,10.0273438 L8.72460938,9.80859375 C8.77473983,8.99283446 9.12222985,8.30013306 9.76708984,7.73046875 C10.4119498,7.16080444 11.2584583,6.87597656 12.3066406,6.87597656 C13.4095107,6.87597656 14.2867806,7.16422238 14.9384766,7.74072266 C15.5901725,8.31722293 15.9160156,8.98827742 15.9160156,9.75390625 C15.9160156,10.1777365 15.7963879,10.5787742 15.5571289,10.9570312 C15.3178699,11.3352883 14.806319,11.8502572 14.0224609,12.5019531 C13.61686,12.8391944 13.3650721,13.1103505 13.2670898,13.3154297 C13.1691076,13.5205088 13.1246744,13.8873671 13.1337891,14.4160156 Z M11.390625,17 L11.390625,15.0791016 L13.3115234,15.0791016 L13.3115234,17 L11.390625,17 Z" fill-rule="nonzero"></path>
    </g>
</svg>