<?xml version="1.0" encoding="UTF-8"?>
<svg width="24px" height="24px" viewBox="0 0 24 24" version="1.1" xmlns="http://www.w3.org/2000/svg" xmlns:xlink="http://www.w3.org/1999/xlink">
    <g stroke="none" stroke-width="1" fill-rule="evenodd">
        <path d="M12,0 C18.6166875,0 24,5.38331252 24,12 C24,18.6166875 18.6167115,24 12,24 C5.38328852,24 0,18.6167115 0,12 C0,5.38328852 5.38328852,0 12,0 Z M12,21.7500015 C17.3759731,21.7500015 21.7500015,17.3759731 21.7500015,12 C21.7500015,6.62402686 17.3759731,2.2499985 12,2.2499985 C6.62402686,2.2499985 2.2499985,6.62402686 2.2499985,12 C2.2499985,17.3759731 6.62402686,21.7500015 12,21.7500015 Z M12,9 C12.5520733,9 12.9999787,9.52995484 13,10.1832101 L13,17.8168403 C13,18.4700452 12.5520733,19 12,19 C11.4479053,19 11,18.4700199 11,17.8168151 L11,10.1831849 C11,9.52995484 11.4479267,9 12,9 Z M10.5,6.5 C10.5,5.67157288 11.1715729,5 12,5 C12.8284271,5 13.5,5.67157288 13.5,6.5 C13.5,7.32842712 12.8284271,8 12,8 C11.1715729,8 10.5,7.32842712 10.5,6.5 Z" id="Combined-Shape" fill-rule="nonzero" transform="translate(12.000000, 12.000000) scale(1, -1) translate(-12.000000, -12.000000) "></path>
    </g>
</svg>