<?xml version="1.0" encoding="UTF-8"?>
<svg viewBox="0 0 18 18" version="1.1" xmlns="http://www.w3.org/2000/svg" xmlns:xlink="http://www.w3.org/1999/xlink">
    <g id="Page-1" stroke="none" stroke-width="1" fill-rule="evenodd">
        <g id="首页框架布局示例" transform="translate(-40.000000, -151.000000)">
            <g id="一级菜单-copy" transform="translate(0.000000, 140.000000)">
                <g id="Menu" transform="translate(40.000000, 11.000000)">
                    <g id="icon">
                        <g id="Icon">
                            <g id="Group">
                                <path d="M11.7,1.74780584 L11.7,0.000653027344 L17.1244522,0.000653027344 C17.6071982,0.000653027344 17.9986614,0.392766609 17.9986614,0.873579041 L17.9986614,6.3 L16.2515086,6.3 L16.2515086,1.74780584 L11.7,1.74780584 Z M11.7,16.2521239 L16.2515262,16.2521239 L16.2515262,11.8011779 C16.2515262,11.7669528 16.2534854,11.7331916 16.2572976,11.7 L17.992909,11.7 C17.9966972,11.7329969 17.9986438,11.7665472 17.9986438,11.8005451 L17.9986438,17.1250499 C17.9986438,17.6078135 17.6071807,17.9992767 17.1250674,17.9992767 L11.7,17.9992767 L11.7,16.2521239 Z M6.3,1.73967833 C6.27036684,1.74389192 6.24024274,1.74662715 6.20970288,1.74780584 L1.74719062,1.74780584 L1.74719062,6.27073386 C1.74719062,6.28052791 1.74702975,6.29028412 1.74671051,6.3 L0.000541009593,6.3 C0.000206426414,6.29007425 3.77929686e-05,6.28010703 3.77929686e-05,6.27010105 L3.77929686e-05,0.874862244 C3.77929686e-05,0.392116219 0.392151375,0.000653027344 0.874264588,0.000653027344 L6.20970288,0.000653027344 C6.24024274,0.00183171717 6.27036684,0.00456693878 6.3,0.00878053807 L6.3,1.73967833 Z M6.3,16.2895362 L6.3,17.9618643 C6.22942758,17.9834122 6.15499803,17.9963018 6.07792022,17.9992767 L0.874264588,17.9992767 C0.391500984,17.9992767 3.77929686e-05,17.6071631 3.77929686e-05,17.1257003 L3.77929686e-05,11.8005451 C0.00135261106,11.766478 0.00460427985,11.7329281 0.00968431707,11.7 L1.7375441,11.7 C1.74262413,11.7329281 1.7458758,11.766478 1.74719062,11.8005451 L1.74719062,16.2521239 L6.07792022,16.2521239 C6.15499803,16.2550987 6.22942758,16.2679883 6.3,16.2895362 Z M4.5,14.4 C4.5,11.9147186 6.51471863,9.9 9,9.9 C11.4852814,9.9 13.5,11.9147186 13.5,14.4 L11.7,14.4 C11.7,12.9088312 10.4911688,11.7 9,11.7 C7.50883118,11.7 6.3,12.9088312 6.3,14.4 L4.5,14.4 Z M9,2.7 C10.4911688,2.7 11.7,3.90883118 11.7,5.4 C11.7,6.89116882 10.4911688,8.1 9,8.1 C7.50883118,8.1 6.3,6.89116882 6.3,5.4 C6.3,3.90883118 7.50883118,2.7 9,2.7 Z" id="Combined-Shape"></path>
                            </g>
                        </g>
                    </g>
                </g>
            </g>
        </g>
    </g>
</svg>