<?xml version="1.0" encoding="UTF-8"?>
<svg width="18px" height="18px" viewBox="0 0 18 18" version="1.1" xmlns="http://www.w3.org/2000/svg" xmlns:xlink="http://www.w3.org/1999/xlink">
    <!-- Generator: Sketch 52.5 (67469) - http://www.bohemiancoding.com/sketch -->
    <desc>Created with Sketch.</desc>
    <g id="Page-1" stroke="none" stroke-width="1" fill-rule="evenodd">
        <g id="首页框架布局示例" transform="translate(-40.000000, -272.000000)">
            <g id="一级菜单-copy-3" transform="translate(0.000000, 260.000000)">
                <g id="Menu" transform="translate(40.000000, 11.000000)">
                    <g id="icon">
                        <path d="M11.699863,2.74713799 L11.699863,1 L17.1242692,1 C17.6070111,1 17.998471,1.39211026 17.998471,1.87291861 L17.998471,7.29929355 L16.251333,7.29929355 L16.251333,2.74713799 L11.699863,2.74713799 Z M11.699863,17.251333 L16.2513506,17.251333 L16.2513506,12.8004248 C16.2513506,12.7662 16.2533098,12.7324391 16.2571219,12.6992478 L17.9927187,12.6992478 C17.9965067,12.7322443 17.9984534,12.7657944 17.9984534,12.799792 L17.9984534,18.1242516 C17.9984534,18.6070111 17.6069936,18.998471 17.1248844,18.998471 L11.699863,18.998471 L11.699863,17.251333 Z M6.29990878,2.73901055 C6.27027588,2.74322411 6.24015202,2.74595931 6.20961242,2.74713799 L1.74713801,2.74713799 L1.74713801,7.27002766 C1.74713801,7.27982163 1.74697714,7.28957775 1.7466579,7.29929355 L0.000503212357,7.29929355 C0.000168632016,7.28936788 0,7.27940075 0,7.26939486 L0,1.8742018 C0,1.39145987 0.392110257,1 0.874219381,1 L6.20961242,1 C6.24015202,1.00117868 6.27027588,1.00391388 6.29990878,1.00812744 L6.29990878,2.73901055 Z M6.29990878,17.2887451 L6.29990878,18.961059 C6.22933696,18.9826067 6.15490804,18.9954962 6.07783088,18.998471 L0.874219381,18.998471 C0.391459872,18.998471 0,18.6063607 0,18.124902 L0,12.799792 C0.00131480694,12.7657252 0.00456644815,12.7321756 0.00964644229,12.6992478 L1.73749157,12.6992478 C1.74257156,12.7321756 1.7458232,12.7657252 1.74713801,12.799792 L1.74713801,17.251333 L6.07783088,17.251333 C6.15490804,17.2543078 6.22933696,17.2671973 6.29990878,17.2887451 Z M4.49992405,5.49930882 L13.4998477,5.49930882 L13.4998477,7.29929355 L4.49992405,7.29929355 L4.49992405,5.49930882 Z M4.49992405,12.6992478 L13.4998477,12.6992478 L13.4998477,14.4992325 L4.49992405,14.4992325 L4.49992405,12.6992478 Z M4.49992405,9.09927829 L13.4998477,9.09927829 L13.4998477,10.899263 L4.49992405,10.899263 L4.49992405,9.09927829 Z" id="Combined-Shape"></path>
                    </g>
                </g>
            </g>
        </g>
    </g>
</svg>