<?xml version="1.0" encoding="UTF-8"?>
<svg width="18px" height="18px" viewBox="0 0 18 18" version="1.1" xmlns="http://www.w3.org/2000/svg" xmlns:xlink="http://www.w3.org/1999/xlink">
    <g id="Page-1" stroke="none" stroke-width="1" fill-rule="evenodd">
        <g transform="translate(-40.000000, -92.000000)" fill-rule="nonzero">
            <g transform="translate(0.000000, 80.000000)">
                <g id="Menu" transform="translate(40.000000, 12.000000)">
                    <g id="icon">
                        <path d="M5.625,5.625 L5.625,14.625 L3.375,14.625 L3.375,5.625 L5.625,5.625 Z M10.125,3.375 L10.125,14.625 L7.875,14.625 L7.875,3.375 L10.125,3.375 Z M14.625,7.875 L14.625,14.625 L12.375,14.625 L12.375,7.875 L14.625,7.875 Z M1,0 L17,0 C17.5522847,-1.01453063e-16 18,0.44771525 18,1 L18,17 C18,17.5522847 17.5522847,18 17,18 L1,18 C0.44771525,18 6.76353751e-17,17.5522847 0,17 L0,1 C-6.76353751e-17,0.44771525 0.44771525,1.01453063e-16 1,0 Z M1.8,1.8 L1.8,16.2 L16.2,16.2 L16.2,1.8 L1.8,1.8 Z" id="Combined-Shape"></path>
                    </g>
                </g>
            </g>
        </g>
    </g>
</svg>