<?xml version="1.0" encoding="UTF-8"?>
<svg width="18px" height="15px" viewBox="0 0 18 15" version="1.1" xmlns="http://www.w3.org/2000/svg" xmlns:xlink="http://www.w3.org/1999/xlink">
    <!-- Generator: Sketch 52.5 (67469) - http://www.bohemiancoding.com/sketch -->
    <g id="Page-1" stroke="none" stroke-width="1" fill-rule="evenodd">
        <g id="首页框架布局示例" transform="translate(-40.000000, -213.000000)">
            <g id="一级菜单-copy-2" transform="translate(0.000000, 200.000000)">
                <g id="Menu" transform="translate(40.000000, 11.000000)">
                    <g id="icon">
                        <path d="M1,2 C1.55228475,2 2,2.44771525 2,3 L2,16 C2,16.5522847 1.55228475,17 1,17 C0.44771525,17 6.76353751e-17,16.5522847 0,16 L0,3 C-6.76353751e-17,2.44771525 0.44771525,2 1,2 Z M5,2 L17,2 C17.5522847,2 18,2.44771525 18,3 L18,4 C18,4.55228475 17.5522847,5 17,5 L5,5 C4.44771525,5 4,4.55228475 4,4 L4,3 C4,2.44771525 4.44771525,2 5,2 Z M5,8 L17,8 C17.5522847,8 18,8.44771525 18,9 L18,10 C18,10.5522847 17.5522847,11 17,11 L5,11 C4.44771525,11 4,10.5522847 4,10 L4,9 C4,8.44771525 4.44771525,8 5,8 Z M5,14 L17,14 C17.5522847,14 18,14.4477153 18,15 L18,16 C18,16.5522847 17.5522847,17 17,17 L5,17 C4.44771525,17 4,16.5522847 4,16 L4,15 C4,14.4477153 4.44771525,14 5,14 Z" id="Combined-Shape"></path>
                    </g>
                </g>
            </g>
        </g>
    </g>
</svg>