<?xml version="1.0" encoding="UTF-8"?>
<svg width="14px" height="14px" viewBox="0 0 14 14" version="1.1" xmlns="http://www.w3.org/2000/svg" xmlns:xlink="http://www.w3.org/1999/xlink">
    <!-- Generator: Sketch 52.5 (67469) - http://www.bohemiancoding.com/sketch -->
    <desc>Created with Sketch.</desc>
    <g id="icon-失效" stroke="none" stroke-width="1" fill-rule="evenodd">
        <path d="M11,6 L9.25,6 L9.25,2.65 C9.25,2.09771525 8.80228475,1.65 8.25,1.65 L5.65,1.65 C5.09771525,1.65 4.65,2.09771525 4.65,2.65 L4.65,6 L3,6 L3,2 C3,0.8954305 3.8954305,2.02906125e-16 5,0 L9,0 C10.1045695,-2.02906125e-16 11,0.8954305 11,2 L11,6 Z M11,8 L11,12 C11,13.1045695 10.1045695,14 9,14 L5,14 C3.8954305,14 3,13.1045695 3,12 L3,8 L4.65,8 L4.65,11.25 C4.65,11.8022847 5.09771525,12.25 5.65,12.25 L8.25,12.25 C8.80228475,12.25 9.25,11.8022847 9.25,11.25 L9.25,8 L11,8 Z M6,4 L8,4 L8,9 L6,9 L6,4 Z" id="Combined-Shape" transform="translate(7.000000, 7.000000) rotate(45.000000) translate(-7.000000, -7.000000) "></path>
    </g>
</svg>