<?xml version="1.0" encoding="UTF-8"?>
<svg width="14px" height="14px" viewBox="0 0 14 14" version="1.1" xmlns="http://www.w3.org/2000/svg" xmlns:xlink="http://www.w3.org/1999/xlink">
    <g id="Page-1" stroke="none" stroke-width="1" fill-rule="evenodd">
        <g id="画像管理-卡片查看" transform="translate(-504.000000, -579.000000)" >
            <g id="Main" transform="translate(220.000000, 80.000000)">
                <g id="Panel" transform="translate(0.000000, 166.000000)">
                    <g id="Group-15" transform="translate(157.000000, 328.000000)">
                        <g id="Button" transform="translate(112.000000, 0.000000)">
                            <g id="icon-放大镜" transform="translate(15.000000, 5.000000)">
                                <path d="M9.10009494,1.35934678 L9.10009494,0.000435351563 L13.3191593,0.000435351563 C13.6946325,0.000435351563 13.9991072,0.305415905 13.9991072,0.679385203 L13.9991072,4.89998082 L12.6401958,4.89998082 L12.6401958,1.35934678 L9.10009494,1.35934678 Z M9.10009494,12.6406059 L12.6402094,12.6406059 L12.6402094,9.17872139 C12.6402094,9.15210153 12.6417333,9.12584253 12.6446983,9.10002657 L13.9946331,9.10002657 C13.9975794,9.12569108 13.9990935,9.15178609 13.9990935,9.1782292 L13.9990935,13.3195558 C13.9990935,13.6950427 13.6946188,13.9995174 13.3196378,13.9995174 L9.10009494,13.9995174 L9.10009494,12.6406059 Z M4.90004918,1.35302532 C4.87700092,1.3563026 4.8535708,1.35843002 4.82981732,1.35934678 L1.35893664,1.35934678 L1.35893664,4.87721802 C1.35893664,4.88483569 1.35881152,4.89242394 1.35856322,4.89998082 L0.000416590285,4.89998082 C0.000156356088,4.8922607 2.51953128e-05,4.88450834 2.51953128e-05,4.87672583 L2.51953128e-05,0.680383261 C2.51953128e-05,0.30491004 0.305005748,0.000435351563 0.679986777,0.000435351563 L4.82981732,0.000435351563 C4.8535708,0.00135212031 4.87700092,0.00347953806 4.90004918,0.00675681766 L4.90004918,1.35302532 Z M4.90004918,12.6697047 L4.90004918,13.9704185 C4.84515892,13.9871782 4.78726864,13.9972036 4.72731858,13.9995174 L0.679986777,13.9995174 C0.304499883,13.9995174 2.51953128e-05,13.6945368 2.51953128e-05,13.3200616 L2.51953128e-05,9.1782292 C0.00104784274,9.15173222 0.00357694602,9.12563762 0.00752812913,9.10002657 L1.35143371,9.10002657 C1.35538489,9.12563762 1.35791399,9.15173222 1.35893664,9.1782292 L1.35893664,12.6406059 L4.72731858,12.6406059 C4.78726864,12.6429197 4.84515892,12.6529451 4.90004918,12.6697047 Z M3.50003393,11.2000495 C3.50003393,9.26703177 5.06705438,7.70001132 7.00007206,7.70001132 C8.93308974,7.70001132 10.5001102,9.26703177 10.5001102,11.2000495 L9.10009494,11.2000495 C9.10009494,10.0402388 8.15988267,9.10002657 7.00007206,9.10002657 C5.84026145,9.10002657 4.90004918,10.0402388 4.90004918,11.2000495 L3.50003393,11.2000495 Z M7.00007206,2.09995031 C8.15988267,2.09995031 9.10009494,3.04016258 9.10009494,4.19997319 C9.10009494,5.3597838 8.15988267,6.29999607 7.00007206,6.29999607 C5.84026145,6.29999607 4.90004918,5.3597838 4.90004918,4.19997319 C4.90004918,3.04016258 5.84026145,2.09995031 7.00007206,2.09995031 Z" id="Combined-Shape-Copy-5"></path>
                            </g>
                        </g>
                    </g>
                </g>
            </g>
        </g>
    </g>
</svg>