<?xml version="1.0" encoding="UTF-8"?>
<svg width="14px" height="14px" viewBox="0 0 14 14" version="1.1" xmlns="http://www.w3.org/2000/svg" xmlns:xlink="http://www.w3.org/1999/xlink">
    <g id="icon-共享管理" stroke="none" stroke-width="1" fill-rule="evenodd">
        <path d="M8,8.9747991 L8,10.5697989 L8,13 L6,13 L6,10.5697989 L6,8 L5,8 L7,5.5 L9,8 L8,8 L8,8.9747991 Z M9.5,8.9747991 L10.4488239,8.9747991 C11.3436188,8.9747991 12.1767404,8.3873075 12.3633554,7.5116526 C12.564857,6.5674127 12.0268104,5.65773114 11.1554089,5.35574451 L10.6715922,5.18773786 L10.6327806,4.77675957 C10.5418656,3.81869635 9.91556233,2.95207978 8.99046243,2.68837314 C7.74795757,2.33428318 6.52937771,3.02066477 6.14445109,4.16534298 L6.02854777,4.5103946 C5.91423945,4.85172456 5.50007116,4.98251455 5.20978119,4.76984791 L4.91683289,4.55452293 C4.72330625,4.41256795 4.48724628,4.34823629 4.24267964,4.37216129 C3.73015303,4.42213795 3.3675564,4.90435956 3.3675564,5.41901283 L3.3675564,5.99374444 L2.72849314,6.16759942 C1.98362823,6.31859273 1.47003828,7.05069765 1.62156327,7.83277923 C1.75447992,8.51597082 2.40896151,8.9747991 3.1049131,8.9747991 L4.5,8.9747991 L4.5,10.5697989 L3.14850976,10.5697989 C1.65239993,10.5697989 0.290270084,9.53889737 0.043045112,8.06299087 C-0.195673194,6.64290936 0.593851716,5.31374285 1.83210324,4.78473457 C1.83795158,4.78260791 1.84114158,4.77782291 1.84273658,4.77197457 C2.11229154,3.61453637 3.1304331,2.77237647 4.34210129,2.77237647 C4.56433793,2.77237647 4.78232124,2.80002313 4.99232955,2.85478479 C5.00083622,2.85691146 5.00881122,2.85372146 5.01306455,2.84627812 C5.7127378,1.71489159 6.95683766,0.9998 8.32960084,0.9998 C10.1835223,0.9998 11.7402421,2.27473652 12.1331437,4.03667966 C12.1347387,4.04199632 12.1379287,4.04678132 12.1427137,4.04943966 C13.4803869,4.74645458 14.2571518,6.26914774 13.9232652,7.84660256 C13.5808719,9.46499571 12.0688121,10.5697989 10.4142656,10.5697989 L9.5,10.5697989 L9.5,8.9747991 Z" id="Combined-Shape" ></path>
    </g>
</svg>