<?xml version="1.0" encoding="UTF-8"?>
<svg width="18px" height="18px" viewBox="0 0 18 18" version="1.1" xmlns="http://www.w3.org/2000/svg" xmlns:xlink="http://www.w3.org/1999/xlink">
    <g id="Page-1" stroke="none" stroke-width="1" fill-rule="evenodd" opacity="0.899042039">
        <g id="02-用户画像-群体画像" transform="translate(-1123.000000, -791.000000)" fill="url(#linearGradient-1)">
            <g id="加班" transform="translate(1123.000000, 791.000000)">
                <path d="M16,-4.26325641e-14 L2,-4.26325641e-14 C0.759226714,-4.26325641e-14 -2.25597319e-13,0.577991328 -2.25597319e-13,1 L-2.25597319e-13,17 C-2.25597319e-13,17.4241181 0.75696711,18 2,18 L16,18 C17.2407733,18 18,17.4220087 18,17 L18,1 C17.9977404,0.577991328 17.2407733,-4.23327922e-14 16,-4.26325641e-14 Z M13.5203125,5.5 L11.5,5.5 L11.5,5.3234375 C11.5,4.59375 10.90625,4 10.1765625,4 L7.8234375,4 C7.09375,4 6.5,4.59375 6.5,5.3234375 L6.5,5.5 L4.4796875,5.5 C3.6640625,5.5 3,6.1640625 3,6.9796875 L3,8 L6,8 C6,7.7234375 6.2234375,7.5 6.5,7.5 C6.7765625,7.5 7,7.7234375 7,8 L11,8 C11,7.7234375 11.2234375,7.5 11.5,7.5 C11.7765625,7.5 12,7.7234375 12,8 L15,8 L15,6.9796875 C15,6.1640625 14.3359375,5.5 13.5203125,5.5 Z M10.5,5.5 L7.5,5.5 L7.5,5.3234375 C7.5,5.1453125 7.6453125,5 7.8234375,5 L10.1765625,5 C10.3546875,5 10.5,5.1453125 10.5,5.3234375 L10.5,5.5 Z M11.5,9.5 C11.7765625,9.5 12,9.2765625 12,9 L15,9 L15,12.5203125 C15,13.3359375 14.3359375,14 13.5203125,14 L4.4796875,14 C3.6640625,14 3,13.3359375 3,12.5203125 L3,9 L6,9 C6,9.2765625 6.2234375,9.5 6.5,9.5 C6.7765625,9.5 7,9.2765625 7,9 L11,9 C11,9.2765625 11.2234375,9.5 11.5,9.5 Z" id="合并形状"></path>
            </g>
        </g>
    </g>
</svg>