<?xml version="1.0" encoding="UTF-8"?>
<svg width="18px" height="18px" viewBox="0 0 18 18" version="1.1" xmlns="http://www.w3.org/2000/svg" xmlns:xlink="http://www.w3.org/1999/xlink">
    <g id="Page-1" stroke="none" stroke-width="1" fill-rule="evenodd" opacity="0.899042039">
        <g id="02-用户画像-群体画像" transform="translate(-771.000000, -791.000000)" fill="url(#linearGradient-1)">
            <g id="加班" transform="translate(771.000000, 791.000000)">
                <path d="M16.3889028,-4.22327104e-14 L1.61109716,-4.22327104e-14 C0.759226714,-4.22327104e-14 -2.24917307e-13,0.577991328 -2.24917307e-13,1.31841088 L-2.24917307e-13,16.6815891 C-2.24917307e-13,17.4241181 0.75696711,18 1.61109716,18 L16.3889028,18 C17.2407733,18 18,17.4220087 18,16.6815891 L18,1.32052033 C17.9977404,0.577991328 17.2407733,-4.19329385e-14 16.3889028,-4.22327104e-14 Z M13.1128899,3.65154455 L13.6481201,2.44192037 L14.1833502,3.65154455 L15.4654131,3.65154455 L14.3980646,4.45699142 L14.9332947,5.86725037 L13.7539214,4.96293999 L12.4718585,5.87015812 L12.8981755,4.45989917 L11.8308271,3.6544523 L13.1128899,3.6544523 L13.1128899,3.65154455 Z M15.0728519,10.3514845 L14.2922392,9.73890914 L13.2501592,10.3514845 L13.6404655,9.37065576 L12.9924812,8.87847096 L13.9019329,8.87847096 L14.2922392,8.01803279 L14.5537065,8.87847096 L15.4631582,8.87847096 L14.6825455,9.37065576 L15.0728519,10.3514845 Z M10.9804511,7.24215457 L11.212782,6.58454333 L11.4451128,7.24215457 L12.1421053,7.24215457 L11.5218045,7.68056206 L11.7541353,8.41194379 L11.1338346,7.9735363 L10.5135338,8.41194379 L10.7458647,7.68056206 L10.2045113,7.24215457 L10.9804511,7.24215457 Z M9.74210526,14.695082 C6.33609023,14.695082 3.5481203,12.064637 3.5481203,8.85035129 C3.5481203,5.78149883 5.9481203,3.29648712 9.12406015,3.00562061 C8.27142857,4.02786885 7.73007519,5.27142857 7.73007519,6.65831382 C7.73007519,9.87259953 10.5180451,12.5030445 13.9240602,12.5030445 L14.7744361,12.5030445 C13.6894737,13.818267 11.6774436,14.695082 9.74210526,14.695082 Z" id="Shape"></path>
            </g>
        </g>
    </g>
</svg>
