<?xml version="1.0" encoding="UTF-8"?>
<svg width="36px" height="36px" viewBox="0 0 36 36" version="1.1" xmlns="http://www.w3.org/2000/svg" xmlns:xlink="http://www.w3.org/1999/xlink">
    <g id="Page-1" stroke="none" stroke-width="1" fill-rule="evenodd">
        <g id="02-用户画像-群体画像" transform="translate(-1366.000000, -609.000000)">
            <g id="Group-2" transform="translate(1224.000000, 199.000000)">
                <g id="消费总额" transform="translate(142.000000, 410.000000)">
                    <path d="M36,18 C36,27.9411255 27.9411255,36 18,36 C8.0588745,36 1.21743675e-15,27.9411255 0,18 C-1.21743675e-15,8.0588745 8.0588745,1.82615513e-15 18,0 L18,5.25 C10.9583694,5.25 5.25,10.9583694 5.25,18 C5.25,25.0416306 10.9583694,30.75 18,30.75 C25.0416306,30.75 30.75,25.0416306 30.75,18 L36,18 Z" id="Combined-Shape"></path>
                    <path d="M18,0 C27.9411255,-1.82615513e-15 36,8.0588745 36,18 C36,27.9411255 27.9411255,36 18,36 C8.0588745,36 1.21743675e-15,27.9411255 0,18 C-1.21743675e-15,8.0588745 8.0588745,1.82615513e-15 18,0 Z M18,5.25 C10.9583694,5.25 5.25,10.9583694 5.25,18 C5.25,25.0416306 10.9583694,30.75 18,30.75 C25.0416306,30.75 30.75,25.0416306 30.75,18 C30.75,10.9583694 25.0416306,5.25 18,5.25 Z" id="Combined-Shape-Copy-2" opacity="0.5"></path>
                </g>
            </g>
        </g>
    </g>
</svg>