<?xml version="1.0" encoding="UTF-8"?>
<svg width="50px" height="42px" viewBox="0 0 50 42" version="1.1" xmlns="http://www.w3.org/2000/svg" xmlns:xlink="http://www.w3.org/1999/xlink">
    <!-- Generator: Sketch 52.1 (67048) - http://www.bohemiancoding.com/sketch -->
    <desc>Created with Sketch.</desc>
    <g id="Page-1" stroke="none" stroke-width="1" fill-rule="evenodd">
        <g id="02-用户画像-群体画像" transform="translate(-1358.000000, -318.000000)">
            <g id="Group-2" transform="translate(1224.000000, 199.000000)">
                <g id="平均消费频次" transform="translate(134.000000, 119.000000)">
                    <g id="分组-7">
                        <rect id="Rectangle-5" x="-3.55271368e-15" y="38.2978723" width="50" height="3.19148936"></rect>
                        <polygon id="Rectangle-4-Copy-3" points="4.25531915 18.0851064 8.5106383 18.0851064 8.5106383 25.5319149 4.25531915 25.5319149"></polygon>
                        <polygon id="Rectangle-4-Copy-9" points="4.25531915 13.8297872 8.5106383 13.8297872 8.5106383 15.9574468 4.25531915 15.9574468"></polygon>
                        <polygon id="Rectangle-4-Copy-4" opacity="0.699999988" points="11.7021277 9.57446809 15.9574468 9.57446809 15.9574468 26.5957447 11.7021277 26.5957447"></polygon>
                        <polygon id="Rectangle-4-Copy-10" opacity="0.699999988" points="11.7021277 5.31914894 15.9574468 5.31914894 15.9574468 7.44680851 11.7021277 7.44680851"></polygon>
                        <polygon id="Rectangle-4-Copy-5" points="19.1489362 4.25531915 23.4042553 4.25531915 23.4042553 31.9148936 19.1489362 31.9148936"></polygon>
                        <polygon id="Rectangle-4-Copy-11" points="19.1489362 1.83852933e-13 23.4042553 1.83852933e-13 23.4042553 2.12765957 19.1489362 2.12765957"></polygon>
                        <polygon id="Rectangle-4-Copy-6" points="26.5957447 12.7659574 30.8510638 12.7659574 30.8510638 22.3404255 26.5957447 22.3404255"></polygon>
                        <polygon id="Rectangle-4-Copy-12" points="26.5957447 8.5106383 30.8510638 8.5106383 30.8510638 10.6382979 26.5957447 10.6382979"></polygon>
                        <polygon id="Rectangle-4-Copy-14" points="41.4893617 10.6382979 45.7446809 10.6382979 45.7446809 12.7659574 41.4893617 12.7659574"></polygon>
                        <rect id="Rectangle-4-Copy-7" opacity="0.699999988" x="34.0425532" y="19.1489362" width="4.25531915" height="9.57446809"></rect>
                        <rect id="Rectangle-4-Copy-13" opacity="0.699999988" x="34.0425532" y="14.893617" width="4.25531915" height="2.12765957"></rect>
                        <rect id="Rectangle-4-Copy-8" x="41.4893617" y="14.893617" width="4.25531915" height="9.57446809"></rect>
                    </g>
                </g>
            </g>
        </g>
    </g>
</svg>