<?xml version="1.0" encoding="UTF-8"?>
<svg width="50px" height="40px" viewBox="0 0 50 40" version="1.1" xmlns="http://www.w3.org/2000/svg" xmlns:xlink="http://www.w3.org/1999/xlink">
    <g id="Page-1" stroke="none" stroke-width="1" fill-rule="evenodd">
        <g id="02-用户画像-个体画像" transform="translate(-1358.000000, -221.000000)">
            <g id="Group-2" transform="translate(1224.000000, 199.000000)">
                <g id="个体画像" transform="translate(134.000000, 22.000000)">
                    <g id="个体画像——1">
                        <path d="M7.48245341,0.685431262 L7.48245341,0.685431262 C8.40255855,0.685431262 9.14845113,1.43132385 9.14845113,2.35142898 L9.14845113,28.6774039 C9.14845113,29.597509 8.40255855,30.3434016 7.48245341,30.3434016 L7.48245341,30.3434016 C6.56234828,30.3434016 5.8164557,29.597509 5.8164557,28.6774039 L5.8164557,2.35142898 C5.8164557,1.43132385 6.56234828,0.685431262 7.48245341,0.685431262 Z" id="Rectangle-4" opacity="0.699999988"></path>
                        <path d="M24.6977632,9.68743811 L24.6977632,9.68743811 C25.6178683,9.68743811 26.3637609,10.4333307 26.3637609,11.3534358 L26.3637609,28.6774039 C26.3637609,29.597509 25.6178683,30.3434016 24.6977632,30.3434016 L24.6977632,30.3434016 C23.777658,30.3434016 23.0317655,29.597509 23.0317655,28.6774039 L23.0317655,11.3534358 C23.0317655,10.4333307 23.777658,9.68743811 24.6977632,9.68743811 Z" id="Rectangle-4-Copy-3"></path>
                        <rect id="Rectangle-4-Copy" opacity="0.699999988" x="11.925114" y="13.1280918" width="3.33199544" height="17.7706423" rx="1.66599772"></rect>
                        <path d="M30.8064215,6.35544267 L30.8064215,6.35544267 C31.7265266,6.35544267 32.4724192,7.10133525 32.4724192,8.02144039 L32.4724192,28.6774039 C32.4724192,29.597509 31.7265266,30.3434016 30.8064215,30.3434016 L30.8064215,30.3434016 C29.8863163,30.3434016 29.1404238,29.597509 29.1404238,28.6774039 L29.1404238,8.02144039 C29.1404238,7.10133525 29.8863163,6.35544267 30.8064215,6.35544267 Z" id="Rectangle-4-Copy-4"></path>
                        <rect id="Rectangle-4-Copy-5" opacity="0.699999988" x="17.4784397" y="15.3494221" width="3.33199544" height="14.9939795" rx="1.66599772"></rect>
                        <path d="M36.8632487,6.35544267 L36.8632487,6.35544267 C37.7833539,6.35544267 38.5292465,7.10133525 38.5292465,8.02144039 L38.5292465,28.6774039 C38.5292465,29.597509 37.7833539,30.3434016 36.8632487,30.3434016 L36.8632487,30.3434016 C35.9431436,30.3434016 35.197251,29.597509 35.197251,28.6774039 L35.197251,8.02144039 C35.197251,7.10133525 35.9431436,6.35544267 36.8632487,6.35544267 Z" id="Rectangle-4-Copy-11" opacity="0.699999988"></path>
                        <path d="M42.971907,12.6874381 L42.971907,12.6874381 C43.8920122,12.6874381 44.6379048,13.4333307 44.6379048,14.3534358 L44.6379048,28.6774039 C44.6379048,29.597509 43.8920122,30.3434016 42.971907,30.3434016 L42.971907,30.3434016 C42.0518019,30.3434016 41.3059093,29.597509 41.3059093,28.6774039 L41.3059093,14.3534358 C41.3059093,13.4333307 42.0518019,12.6874381 42.971907,12.6874381 Z" id="Rectangle-4-Copy-15"></path>
                        <rect id="Rectangle-5" x="0" y="36.7223101" width="50" height="3" rx="1.5"></rect>
                    </g>
                </g>
            </g>
        </g>
    </g>
</svg>