<?xml version="1.0" encoding="UTF-8"?>
<svg width="14px" height="14px" viewBox="0 0 14 14" version="1.1" xmlns="http://www.w3.org/2000/svg" xmlns:xlink="http://www.w3.org/1999/xlink">
    <g id="icon-卡片-蓝" stroke="none" stroke-width="1" fill-rule="evenodd">
        <path d="M1,1.25 L5.25,1.25 C5.80228475,1.25 6.25,1.69771525 6.25,2.25 L6.25,5.25 C6.25,5.80228475 5.80228475,6.25 5.25,6.25 L1,6.25 C0.44771525,6.25 6.76353751e-17,5.80228475 0,5.25 L0,2.25 C-6.76353751e-17,1.69771525 0.44771525,1.25 1,1.25 Z M1.5,2.75 L1.5,4.75 L4.75,4.75 L4.75,2.75 L1.5,2.75 Z M1,7.75 L5.25,7.75 C5.80228475,7.75 6.25,8.19771525 6.25,8.75 L6.25,11.75 C6.25,12.3022847 5.80228475,12.75 5.25,12.75 L1,12.75 C0.44771525,12.75 6.76353751e-17,12.3022847 0,11.75 L0,8.75 C-6.76353751e-17,8.19771525 0.44771525,7.75 1,7.75 Z M1.5,9.25 L1.5,11.25 L4.75,11.25 L4.75,9.25 L1.5,9.25 Z M8.75,1.25 L13,1.25 C13.5522847,1.25 14,1.69771525 14,2.25 L14,5.25 C14,5.80228475 13.5522847,6.25 13,6.25 L8.75,6.25 C8.19771525,6.25 7.75,5.80228475 7.75,5.25 L7.75,2.25 C7.75,1.69771525 8.19771525,1.25 8.75,1.25 Z M9.25,2.75 L9.25,4.75 L12.5,4.75 L12.5,2.75 L9.25,2.75 Z M8.75,7.75 L13,7.75 C13.5522847,7.75 14,8.19771525 14,8.75 L14,11.75 C14,12.3022847 13.5522847,12.75 13,12.75 L8.75,12.75 C8.19771525,12.75 7.75,12.3022847 7.75,11.75 L7.75,8.75 C7.75,8.19771525 8.19771525,7.75 8.75,7.75 Z M9.25,9.25 L9.25,11.25 L12.5,11.25 L12.5,9.25 L9.25,9.25 Z" id="Combined-Shape" ></path>
    </g>
</svg>