<?xml version="1.0" encoding="UTF-8"?>
<svg width="14px" height="14px" viewBox="0 0 14 14" version="1.1" xmlns="http://www.w3.org/2000/svg" xmlns:xlink="http://www.w3.org/1999/xlink">
    <g id="icon-列表-蓝" stroke="none" stroke-width="1" fill-rule="evenodd">
        <path d="M0,2 L1.5,2 L1.5,3.5 L0,3.5 L0,2 Z M0,6.16666667 L1.5,6.16666667 L1.5,7.66666667 L0,7.66666667 L0,6.16666667 Z M0,10.3333333 L1.5,10.3333333 L1.5,11.8333333 L0,11.8333333 L0,10.3333333 Z M3,2 L14,2 L14,3.5 L3,3.5 L3,2 Z M3,6.16666667 L14,6.16666667 L14,7.66666667 L3,7.66666667 L3,6.16666667 Z M3,10.3333333 L14,10.3333333 L14,11.8333333 L3,11.8333333 L3,10.3333333 Z" id="Combined-Shape" ></path>
    </g>
</svg>