<?xml version="1.0" encoding="UTF-8"?>
<svg width="52px" height="52px" viewBox="0 0 52 52" version="1.1" xmlns="http://www.w3.org/2000/svg" xmlns:xlink="http://www.w3.org/1999/xlink">
    <!-- Generator: Sketch 51.2 (57519) - http://www.bohemiancoding.com/sketch -->
    <defs></defs>
    <g id="营销中心页面" stroke="none" stroke-width="1" fill="none" fill-rule="evenodd">
        <g id="营销中心首页61" transform="translate(-1580.000000, -139.000000)">
            <g id="Group-16" transform="translate(1550.000000, 100.000000)">
                <g id="Group-4">
                    <g id="Group-5" transform="translate(30.000000, 39.000000)">
                        <path d="M26,52 C40.3594035,52 52,40.3594035 52,26 C52,20.4711046 50.2742448,15.3452809 47.3320159,11.1318104 C42.6328177,4.40224108 34.8305081,0 26,0 C11.6405965,0 0,11.6405965 0,26 C0,40.3594035 11.6405965,52 26,52 Z" id="Oval-3" fill="#5F68FF" fill-rule="nonzero" opacity="0.2"></path>
                        <g id="Group-184" transform="translate(15.000000, 15.000000)">
                            <rect id="Rectangle-48-Copy-15" x="0.0214634146" y="0" width="21.9785366" height="22"></rect>
                            <g id="chrome" fill="#5F68FF" fill-rule="nonzero">
                                <path d="M5.53735894,9.59453582 L2.39343986,4.14287567 C4.40492825,1.61594391 7.50612993,0 10.9783869,0 C14.9975945,0 18.5146629,2.16396331 20.4277337,5.39375306 L11.4675434,5.39375306 C11.3067248,5.37864686 11.1438122,5.37235261 10.9808997,5.37235261 C8.3663417,5.36983489 6.16178726,7.16873169 5.53735894,9.59453582 Z M14.9117409,6.98158265 L21.2062798,6.98158265 C21.6929235,8.22574616 21.9613732,9.58152772 21.9613732,10.9998322 C21.9613732,17.0339203 17.1121073,21.9312668 11.104864,21.9996643 L15.5956386,14.2057037 C16.2284428,13.2947159 16.5974042,12.1898651 16.5974042,10.9973145 C16.5974042,9.42710878 15.9541299,8.00460815 14.9117409,6.98158265 Z M6.99142676,10.9998322 C6.99142676,8.79516602 8.78011445,7.00298311 10.9804809,7.00298311 C13.1808473,7.00298311 14.9699538,8.79516602 14.9699538,10.9998322 C14.9699538,13.2044983 13.1812661,14.9971008 10.9804809,14.9971008 C8.77969564,14.9971008 6.99142676,13.2049179 6.99142676,10.9998322 Z M12.4839669,16.4258957 L9.3421418,21.881752 C4.05104366,21.0890961 7.3762113e-06,16.5203095 7.3762113e-06,10.9998322 C7.3762113e-06,9.04022217 0.512616537,7.19852448 1.40926377,5.6060791 L5.89375633,13.3870316 C6.79249757,15.3038406 8.73530302,16.6319275 10.9829937,16.6319275 C11.5018848,16.6323471 12.0036052,16.5593338 12.4839669,16.4258957 Z" id="Shape"></path>
                            </g>
                        </g>
                    </g>
                </g>
            </g>
        </g>
    </g>
</svg>