<?xml version="1.0" encoding="UTF-8"?>
<svg width="52px" height="52px" viewBox="0 0 52 52" version="1.1" xmlns="http://www.w3.org/2000/svg" xmlns:xlink="http://www.w3.org/1999/xlink">
    <!-- Generator: Sketch 51.2 (57519) - http://www.bohemiancoding.com/sketch -->
    <defs></defs>
    <g id="营销中心页面" stroke="none" stroke-width="1" fill="none" fill-rule="evenodd">
        <g id="营销中心首页61" transform="translate(-1220.000000, -139.000000)" fill-rule="nonzero">
            <g id="Group-16" transform="translate(1190.000000, 100.000000)">
                <g id="Group-4">
                    <g id="Group-5" transform="translate(30.000000, 39.000000)">
                        <path d="M26,52 C40.3594035,52 52,40.3594035 52,26 C52,20.4711046 50.2742448,15.3452809 47.3320159,11.1318104 C42.6328177,4.40224108 34.8305081,0 26,0 C11.6405965,0 0,11.6405965 0,26 C0,40.3594035 11.6405965,52 26,52 Z" id="Oval-3" fill="#1EBF56" opacity="0.2"></path>
                        <g id="订单完成" transform="translate(15.000000, 15.000000)">
                            <rect id="Rectangle-path" fill="#000000" opacity="0" x="0" y="0" width="22" height="22"></rect>
                            <path d="M8.70804688,14.9041406 C8.70804688,11.4849023 11.4806055,8.71234375 14.8998437,8.71234375 C15.4503412,8.71195054 15.9983868,8.7856592 16.5292187,8.93148438 L16.5292187,3.49830078 C16.5279181,2.77896079 15.9451017,2.19614444 15.2257617,2.19484375 L3.49400391,2.19484375 C2.77504847,2.19673466 2.19282299,2.77934426 2.19140625,3.49830078 L2.19140625,17.1851367 C2.19270657,17.9045117 2.77548854,18.4873897 3.49486328,18.4888086 L9.85208984,18.4888086 C9.10641212,17.4424315 8.70669017,16.1890279 8.70890625,14.9041406 L8.70804688,14.9041406 Z M5.44929688,4.80175781 L13.2696094,4.80175781 C13.5024879,4.80175781 13.7176766,4.92599703 13.8341159,5.12767578 C13.9505552,5.32935452 13.9505552,5.57783298 13.8341159,5.77951172 C13.7176766,5.98119047 13.5024879,6.10542969 13.2696094,6.10542969 L5.44929688,6.10542969 C5.08929783,6.10542969 4.79746094,5.8135928 4.79746094,5.45359375 C4.79746094,5.0935947 5.08929783,4.80175781 5.44929688,4.80175781 Z M5.44929687,8.71191406 L8.05664062,8.71191406 C8.41663967,8.71191406 8.70847656,9.00375095 8.70847656,9.36375 C8.70847656,9.72374905 8.41663967,10.0155859 8.05664062,10.0155859 L5.44929687,10.0155859 C5.08929783,10.0155859 4.79746094,9.72374905 4.79746094,9.36375 C4.79746094,9.00375095 5.08929783,8.71191406 5.44929687,8.71191406 Z M6.75275391,13.925957 L5.44929687,13.925957 C5.21363625,13.9302359 4.99402244,13.8069615 4.87493959,13.6035567 C4.75585674,13.4001519 4.75585674,13.1483051 4.87493959,12.9449003 C4.99402244,12.7414955 5.21363625,12.6182211 5.44929687,12.6225 L6.75275391,12.6225 C6.98841453,12.6182211 7.20802834,12.7414955 7.32711119,12.9449003 C7.44619404,13.1483051 7.44619404,13.4001519 7.32711119,13.6035567 C7.20802834,13.8069615 6.98841453,13.9302359 6.75275391,13.925957 Z" id="Shape" fill="#1EBF56"></path>
                            <path d="M14.8972656,10.0134375 C12.1960352,10.0134375 10.0065625,12.2029102 10.0065625,14.9041406 C10.0065625,17.6053711 12.1960352,19.7948437 14.8972656,19.7948437 C17.5984961,19.7948437 19.7871094,17.6053711 19.7871094,14.9041406 C19.7871094,12.2029102 17.5984961,10.0134375 14.8972656,10.0134375 Z M17.6928125,14.0350977 L14.8968359,16.8310742 C14.8858405,16.8451688 14.8740025,16.8585852 14.8613867,16.87125 C14.6764683,17.0549692 14.3779262,17.0549692 14.1930078,16.87125 L12.4312891,15.1095312 C12.2473348,14.9247098 12.2473348,14.6259738 12.4312891,14.4411523 C12.6161105,14.2571981 12.9148466,14.2571981 13.099668,14.4411523 L14.5253711,15.8668555 L17.0244336,13.3667187 C17.209255,13.1827645 17.5079911,13.1827645 17.6928125,13.3667187 C17.8767668,13.5515402 17.8767668,13.8502762 17.6928125,14.0350977 Z" id="Shape" fill="#1EBF56"></path>
                        </g>
                    </g>
                </g>
            </g>
        </g>
    </g>
</svg>