<?xml version="1.0" encoding="UTF-8"?>
<svg width="52px" height="52px" viewBox="0 0 52 52" version="1.1" xmlns="http://www.w3.org/2000/svg" xmlns:xlink="http://www.w3.org/1999/xlink">
    <!-- Generator: Sketch 51.2 (57519) - http://www.bohemiancoding.com/sketch -->
    <defs></defs>
    <g id="营销中心页面" stroke="none" stroke-width="1" fill="none" fill-rule="evenodd">
        <g id="营销中心首页61" transform="translate(-500.000000, -139.000000)" fill-rule="nonzero">
            <g id="Group-16" transform="translate(470.000000, 100.000000)">
                <g id="Group-4">
                    <g id="Group-5" transform="translate(30.000000, 39.000000)">
                        <path d="M26,52 C40.3594035,52 52,40.3594035 52,26 C52,20.4711046 50.2742448,15.3452809 47.3320159,11.1318104 C42.6328177,4.40224108 34.8305081,0 26,0 C11.6405965,0 0,11.6405965 0,26 C0,40.3594035 11.6405965,52 26,52 Z" id="Oval-3" fill="#1EBF8E" opacity="0.2"></path>
                        <g id="资讯-点击" transform="translate(14.000000, 14.000000)">
                            <path d="M2.24656404,22.1594345 L16.450024,15.6801402 C16.7041783,15.5642008 16.9041718,15.3551804 17.0087855,15.0961586 L22.1927189,2.26082306 C22.2604071,2.09322816 22.1794167,1.90249351 22.0118218,1.83480531 C21.9285642,1.80117922 21.8351476,1.80323784 21.7534521,1.840499 L7.55004291,8.31864499 C7.29584819,8.43458268 7.09582339,8.64362834 6.99120398,8.90268679 L1.80727398,21.7391285 C1.73959083,21.9067255 1.82058696,22.0974577 1.9881839,22.1651408 C2.07144631,22.1987659 2.1648673,22.1967027 2.24656404,22.1594345 Z" id="Path" fill="#1EBF8E"></path>
                            <path d="M12.0000186,14.8974073 C10.551406,14.8974073 9.44358887,13.8282291 9.44358887,12.4295805 C9.44358887,11.030932 10.551406,9.96175375 12.0000186,9.96175375 C13.3633859,9.96175375 14.5564112,11.030932 14.5564112,12.4295805 C14.5564112,13.8282291 13.363423,14.8974073 12.0000186,14.8974073 Z" id="Shape" fill="#173933"></path>
                        </g>
                    </g>
                </g>
            </g>
        </g>
    </g>
</svg>