<?xml version="1.0" encoding="UTF-8"?>
<svg width="52px" height="52px" viewBox="0 0 52 52" version="1.1" xmlns="http://www.w3.org/2000/svg" xmlns:xlink="http://www.w3.org/1999/xlink">
    <!-- Generator: Sketch 51.2 (57519) - http://www.bohemiancoding.com/sketch -->
    <defs></defs>
    <g id="营销中心页面" stroke="none" stroke-width="1" fill="none" fill-rule="evenodd">
        <g id="营销中心首页61" transform="translate(-860.000000, -139.000000)">
            <g id="Group-16" transform="translate(830.000000, 100.000000)">
                <g id="Group-4">
                    <g id="Group-5" transform="translate(30.000000, 39.000000)">
                        <path d="M26,52 C40.3594035,52 52,40.3594035 52,26 C52,20.4711046 50.2742448,15.3452809 47.3320159,11.1318104 C42.6328177,4.40224108 34.8305081,0 26,0 C11.6405965,0 0,11.6405965 0,26 C0,40.3594035 11.6405965,52 26,52 Z" id="Oval-3" fill="#36CFC9" fill-rule="nonzero" opacity="0.2"></path>
                        <g id="Group-11" transform="translate(15.000000, 15.000000)">
                            <g id="enviroment" transform="translate(2.599609, 1.289062)" fill="#36CFC9" fill-rule="nonzero">
                                <path d="M8.40039062,5.13691406 C6.85351562,5.13691406 5.59667969,6.39375 5.59667969,7.940625 C5.59667969,9.4875 6.85351562,10.7443359 8.40039062,10.7443359 C9.94726562,10.7443359 11.2041016,9.4875 11.2041016,7.940625 C11.2041016,6.39375 9.94726562,5.13691406 8.40039062,5.13691406 Z M16.1046875,4.503125 C15.6685547,3.62871094 15.0498047,2.84238281 14.2634766,2.16347656 C13.4835938,1.49101562 12.5855469,0.9625 11.5908203,0.590820313 C10.5660156,0.208398438 9.49394531,0.0150390625 8.40253906,0.0150390625 L8.39824219,0.0150390625 C7.30683594,0.0150390625 6.23476563,0.208398438 5.20996094,0.590820313 C4.21523437,0.9625 3.3171875,1.49101562 2.53730469,2.16347656 C1.75097656,2.84238281 1.13007812,3.63085938 0.69609375,4.503125 C0.240625,5.41835938 0.00859375,6.38730469 0.00859375,7.37988281 C0.00859375,8.76132813 0.348046875,10.1814453 1.01835937,11.6015625 C1.57265625,12.7767578 2.35683594,13.9626953 3.3515625,15.1271484 C5.13046875,17.2111328 7.1328125,18.7021484 7.91054687,19.2457031 C8.05449219,19.3466797 8.22421875,19.4003906 8.40039062,19.4003906 C8.57441406,19.4003906 8.74414062,19.3466797 8.89023437,19.2457031 C9.66796875,18.7021484 11.6724609,17.2111328 13.4492188,15.1271484 C14.4417969,13.9626953 15.228125,12.7767578 15.7824219,11.6015625 C16.4527344,10.1814453 16.7921875,8.75917969 16.7921875,7.37988281 C16.7921875,6.38515625 16.5601562,5.41835937 16.1046875,4.503125 Z M11.4683594,11.0064453 C10.6498047,11.825 9.56054688,12.2761719 8.40039062,12.2761719 C7.24023437,12.2761719 6.153125,11.825 5.33242187,11.0064453 C4.51386719,10.1878906 4.06269531,9.09863281 4.06269531,7.93847656 C4.06269531,6.77832031 4.51386719,5.69121094 5.33242187,4.87050781 C6.15097656,4.05195312 7.24023438,3.60078125 8.40039062,3.60078125 C9.55839844,3.60078125 10.6476562,4.05195312 11.4683594,4.87050781 C12.2869141,5.6890625 12.7380859,6.77832031 12.7380859,7.93847656 C12.7380859,9.09863281 12.2869141,10.1878906 11.4683594,11.0064453 Z" id="Shape"></path>
                            </g>
                            <rect id="Rectangle-14" opacity="0.65" x="0" y="0" width="22" height="22"></rect>
                        </g>
                    </g>
                </g>
            </g>
        </g>
    </g>
</svg>