<?xml version="1.0" encoding="UTF-8"?>
<svg width="52px" height="52px" viewBox="0 0 52 52" version="1.1" xmlns="http://www.w3.org/2000/svg" xmlns:xlink="http://www.w3.org/1999/xlink">
    <!-- Generator: Sketch 51.2 (57519) - http://www.bohemiancoding.com/sketch -->
    <defs></defs>
    <g id="营销中心页面" stroke="none" stroke-width="1" fill="none" fill-rule="evenodd">
        <g id="营销中心首页61" transform="translate(-140.000000, -139.000000)">
            <g id="Group-16" transform="translate(110.000000, 100.000000)">
                <g id="Group-4">
                    <g id="Group-5" transform="translate(30.000000, 39.000000)">
                        <path d="M26,52 C40.3594035,52 52,40.3594035 52,26 C52,20.4711046 50.2742448,15.3452809 47.3320159,11.1318104 C42.6328177,4.40224108 34.8305081,0 26,0 C11.6405965,0 0,11.6405965 0,26 C0,40.3594035 11.6405965,52 26,52 Z" id="Oval-3" fill-opacity="0.2" fill="#1B87ED" fill-rule="nonzero"></path>
                        <g id="Group-19" transform="translate(16.000000, 16.000000)">
                            <g id="tag" transform="translate(1.000000, 1.000000)" fill="#1B87ED" fill-rule="nonzero">
                                <path d="M18.9987387,11.5293006 C18.9987387,11.5039475 18.9966261,11.4807072 18.9945135,11.4553542 C18.9839504,11.3328144 18.9564864,11.2102747 18.9163467,11.0919604 C18.8677566,10.9504059 18.7980404,10.8130768 18.7050853,10.6863116 C18.6586078,10.6229289 18.6079051,10.5616591 18.5508645,10.5046147 L8.4441186,0.304236628 C8.38496541,0.242966752 8.31736175,0.190147893 8.24553287,0.147892806 C8.08708682,0.0528188591 7.905402,-2.08617845e-14 7.71526673,-2.08617845e-14 L1.57601013,-2.07116643e-14 C0.705613113,-2.07116643e-14 8.26805638e-13,0.69720894 8.26805638e-13,1.55921272 L8.26805638e-13,7.85944624 C8.26805638e-13,7.92705438 0.00633784233,7.99254976 0.019013527,8.05593239 C0.0232387552,8.07283443 0.0253513693,8.08762371 0.0295765976,8.10452574 C0.0422522822,8.15311909 0.057040581,8.19959969 0.076054108,8.24396753 C0.0823919503,8.25875681 0.0887297927,8.27354609 0.0971802491,8.28833537 C0.145770374,8.39186034 0.213374025,8.48693428 0.29787859,8.57144446 L5.3449137,13.5575448 L10.3919488,18.5436451 C10.5081426,18.6577338 10.637012,18.750695 10.774332,18.8225286 C11.0024943,18.9408429 11.256008,19 11.5074091,19 C11.71022,19 11.9109184,18.9619704 12.1010536,18.8859113 C12.2911889,18.8098521 12.4686485,18.6957634 12.6228693,18.5436451 L18.5381888,12.695541 C18.5741033,12.6596242 18.6079051,12.6237073 18.6395943,12.5856777 C18.6818466,12.5349716 18.7198736,12.4821528 18.7536755,12.4293339 C18.7769142,12.3934171 18.7980404,12.3575003 18.8170539,12.3215835 C18.8360674,12.2856666 18.8529683,12.2518626 18.8677566,12.2159457 C18.8762071,12.1969309 18.8846575,12.1779162 18.8909954,12.1589014 C18.9733873,11.9560769 19.0071892,11.7426888 18.9987387,11.5293006 Z M4.5,6 C3.67205056,6 3,5.32794944 3,4.5 C3,3.67205056 3.67205056,3 4.5,3 C5.32794944,3 6,3.67205056 6,4.5 C6,5.32794944 5.32794944,6 4.5,6 Z" id="Shape"></path>
                            </g>
                            <rect id="Rectangle-22" x="0" y="0" width="22" height="22"></rect>
                        </g>
                    </g>
                </g>
            </g>
        </g>
    </g>
</svg>