<?xml version="1.0" encoding="UTF-8"?>
<svg width="46px" height="46px" viewBox="0 0 46 46" version="1.1" xmlns="http://www.w3.org/2000/svg" xmlns:xlink="http://www.w3.org/1999/xlink">
    <!-- Generator: Sketch 51.2 (57519) - http://www.bohemiancoding.com/sketch -->
    <defs></defs>
    <g id="乘用车logol" stroke="none" stroke-width="1" fill="none" fill-rule="evenodd">
        <g id="Group-13">
            <g id="Group-21">
                <circle id="Oval-2" fill="#1EBF56" cx="23" cy="23" r="23"></circle>
                <g id="Group-4" transform="translate(5.000000, 14.000000)">
                    <path d="M12.0119544,17.1999091 L12.0158326,17.199515 C12.1061629,17.1906345 12.1993336,17.1799767 12.3043262,17.1674578 C12.3394836,17.1618056 12.3767255,17.1460776 12.4025036,17.1275058 C12.4731369,17.0744248 12.5464291,17.0165663 12.6469636,16.9350449 C12.6917106,16.8996513 12.7340438,16.8647264 12.8078417,16.8027785 C12.8280585,16.7858013 12.8280585,16.7858013 12.8486731,16.768495 C12.9041899,16.7219746 12.9041899,16.7219746 12.9572229,16.6783846 C13.6248472,16.1196148 14.2722619,15.5271966 14.900968,14.9007589 C15.501869,14.2999138 16.0926846,13.6533481 16.6750956,12.9634488 C16.7419399,12.8822059 16.7419399,12.8822059 16.8069721,12.8042205 C16.8125024,12.7975898 16.8125024,12.7975898 16.818015,12.7909801 C16.8816886,12.7146033 16.9083035,12.6825061 16.9336331,12.6517529 C16.9522782,12.6277735 16.9522782,12.6277735 16.971024,12.6036722 C17.05292,12.4985121 17.0887424,12.4528213 17.1143842,12.4227973 C17.1430846,12.3813715 17.1607384,12.3391294 17.1631079,12.3324431 C17.1728539,12.2449393 17.18097,12.1765485 17.1991581,12.0265228 C17.2005475,12.0150672 17.2005475,12.0150672 17.2002561,12.0191895 C17.206514,11.9535404 17.206514,11.9535404 17.2127911,11.888903 C17.2134413,11.8822129 17.2134413,11.8822129 17.2140906,11.8755321 C17.2273236,11.7393292 17.2328836,11.6805241 17.2392931,11.6067411 C17.3150293,10.715892 17.3546069,9.83724646 17.356819,8.97506881 C17.3546092,8.11052111 17.3151174,7.23461443 17.2394917,6.34344167 C17.2291851,6.23019362 17.2291851,6.23019362 17.2180157,6.1137012 C17.216038,6.09317218 17.216038,6.09317218 17.214052,6.07259053 C17.207145,6.00106643 17.207145,6.00106643 17.201877,5.94405558 C17.2004965,5.93259661 17.2004965,5.93259661 17.1991127,5.92112339 C17.1941589,5.88008434 17.1941589,5.88008434 17.1891835,5.83879334 C17.176033,5.72904868 17.176033,5.72904868 17.1686097,5.65400364 C17.1607616,5.60986645 17.1424803,5.56593932 17.1375418,5.55681109 C17.1079086,5.51941205 17.1079086,5.51941205 17.0790337,5.4826334 C17.0244461,5.41278935 17.0244461,5.41278935 16.9721726,5.34585585 C16.9540832,5.32277642 16.9540832,5.32277642 16.9420904,5.30742207 C16.8840813,5.23674171 16.8840813,5.23674171 16.8231502,5.16358407 C16.8150075,5.15381328 16.8150075,5.15381328 16.8068223,5.14399181 C16.7416375,5.06574771 16.7120363,5.03000334 16.6809665,4.99171519 C16.1007445,4.30396675 15.5089455,3.65719206 14.90164,3.04925668 C14.2697229,2.41942303 13.6223598,1.8266029 12.954133,1.26737422 C12.8504921,1.17942121 12.7489412,1.09524839 12.6356252,1.00339992 C12.5701658,0.948944685 12.4996525,0.893887789 12.4125013,0.828011212 C12.3787343,0.803726335 12.3362511,0.785859543 12.331223,0.783289338 C12.1926386,0.767489538 12.1040895,0.757695411 12.0116817,0.748163271 C11.8234349,0.728315321 11.7218698,0.718342862 11.6078189,0.709262566 C10.7489368,0.63439633 9.86956846,0.595646739 8.97607334,0.591710255 C8.07993329,0.595651064 7.19923502,0.634474155 6.33665954,0.709698897 C6.22207785,0.718653963 6.10461314,0.730099455 5.93375978,0.748379898 C5.86782255,0.755095364 5.82355592,0.759936854 5.71288307,0.77241799 C5.66577887,0.777787094 5.66577887,0.777787094 5.66006873,0.776906649 C5.61124557,0.786087073 5.56837233,0.804035221 5.54611446,0.819891703 C5.42613164,0.910465201 5.37321719,0.951599579 5.3047168,1.00939144 C5.19583115,1.0970656 5.09341526,1.18134954 4.98889004,1.26935684 C4.31155185,1.83814227 3.66168758,2.43257983 3.04595866,3.04717677 C2.42965697,3.66757902 1.83605116,4.31673282 1.27261349,4.98565145 C1.23223421,5.03475837 1.23223421,5.03475837 1.1920917,5.08334652 C1.15919112,5.12310245 1.15919112,5.12310245 1.12639981,5.1626354 C1.06449844,5.23717889 1.06449844,5.23717889 1.01267612,5.29922573 C0.971705711,5.35110755 0.971705711,5.35110755 0.932266206,5.4007083 C0.8995564,5.44194037 0.8995564,5.44194037 0.868689937,5.4813359 C0.843698256,5.51354549 0.843698256,5.51354549 0.828683703,5.53301378 C0.803956904,5.56756469 0.787582534,5.60706334 0.783768198,5.62741469 C0.776155695,5.68541638 0.77056149,5.7311058 0.757751857,5.8383039 C0.751443169,5.89111353 0.751443169,5.89111353 0.746665573,5.92870549 C0.741713197,5.98176626 0.741713197,5.98176626 0.736747875,6.03586903 C0.733304983,6.07343359 0.733304983,6.07343359 0.729810979,6.1113888 C0.718655977,6.23124784 0.713688209,6.2825255 0.707286955,6.34179877 C0.631599468,7.22073984 0.593060653,8.09721711 0.59171528,8.97264863 C0.593062036,9.8505409 0.631678524,10.7296207 0.70632003,11.5959038 C0.715180621,11.6814502 0.721388215,11.746415 0.734839526,11.8917469 C0.735780216,11.9019398 0.735780216,11.9019398 0.736718758,11.9121141 C0.741701938,11.9661426 0.741701938,11.9661426 0.744833042,12.0025715 C0.751412785,12.0564959 0.751412785,12.0564959 0.757742607,12.1093811 C0.770588764,12.216943 0.776302834,12.2637518 0.780788131,12.3009013 C0.787613854,12.3419584 0.803382885,12.379838 0.81995143,12.4035222 C0.848093831,12.440844 0.871791671,12.4710412 0.932302453,12.5472316 C0.972748676,12.5981873 0.972748676,12.5981873 1.00239157,12.636608 C1.0670145,12.7142973 1.0670145,12.7142973 1.13156559,12.7919927 C1.16167057,12.8282656 1.16167057,12.8282656 1.19182117,12.8646544 C1.23180541,12.9129685 1.23180541,12.9129685 1.26779642,12.9566519 C1.84374227,13.6401669 2.43742056,14.2902704 3.04412611,14.9003313 C3.65928951,15.5141808 4.30880122,16.1078458 4.98064781,16.6722107 C5.04184564,16.7221591 5.04184564,16.7221591 5.09958364,16.770199 C5.11848066,16.7859485 5.11848066,16.7859485 5.137048,16.801427 C5.21206874,16.8639475 5.25431788,16.8985722 5.31055452,16.9430135 C5.38265212,17.002595 5.46222926,17.0651394 5.5372552,17.1217157 C5.57039433,17.1457762 5.60805236,17.1616071 5.62332314,17.1644268 C5.760351,17.1813675 5.84289377,17.1908932 5.93650712,17.2000075 C6.05994974,17.2131622 6.19219642,17.2256749 6.34331076,17.238698 C7.19860014,17.3152582 8.07836791,17.3542815 8.971657,17.3570424 C9.87116734,17.3542844 10.749608,17.315335 11.6075646,17.2385989 C11.7502853,17.2260963 11.883258,17.213418 12.0119544,17.1999091 Z M12.1335587,18.3770782 C12.1329121,18.3771419 12.1322656,18.3772055 12.131619,18.377269 L12.1354972,18.3768749 C12.1348512,18.3769427 12.1342052,18.3770105 12.133559,18.3770782 Z" id="Path" stroke="#FFFFFF" stroke-width="1.18343195"></path>
                    <path d="M8.30769231,3 C8.28921497,6.92279072 8.28921497,10.8466093 8.30769231,14.7692308 C7.81881775,14.7604029 7.33018162,14.734161 6.84136667,14.6972169 C6.79880919,11.7627152 6.79028578,8.82967684 6.81317383,5.89651751 C6.32358403,7.27711589 5.8599221,8.66478867 5.41688326,10.0623173 C5.02444848,9.35275995 4.62211938,8.64755613 4.21400867,7.94833835 C4.20226662,8.25931008 4.19761749,8.57245854 4.1964254,8.88391399 C4.19761749,10.2128147 4.30317672,11.5381481 4.50744069,12.8514488 C4.05164653,12.3761936 3.61117068,11.8823756 3.19198548,11.3719901 C3.16367344,11.3423018 3.1369111,11.3087437 3.11151966,11.2769995 C3.10794341,11.2356414 3.10287704,11.1958554 3.10037366,11.1546788 C3.03415327,10.4007401 3.00447032,9.64317356 3,8.88391399 C3.00447032,8.12598465 3.03415327,7.36908322 3.10037366,6.61345155 C3.10287704,6.57378648 3.10794341,6.53140049 3.11151966,6.49046565 C3.1369111,6.45974941 3.16367344,6.42685642 3.19198548,6.39668437 C3.49982983,6.01998714 3.82073943,5.65489919 4.14969562,5.29712752 C4.47012839,5.82329434 4.78597163,6.35175884 5.09722534,6.88427449 C5.52840292,5.61747133 5.97770021,4.3585891 6.45083923,3.10514871 C7.06667096,3.04710227 7.68721144,3.01203254 8.30769231,3" id="Path" fill="#FFFFFF"></path>
                    <path d="M13.4380599,4.78940539 C13.9829451,5.33535681 14.5035983,5.90580135 15.0011849,6.49669763 C15.0376251,6.54127509 15.0753536,6.58548515 15.1130821,6.62908289 C15.1167016,6.68737649 15.1240019,6.74542516 15.1285416,6.80157562 C15.1577428,7.1245785 15.1799505,7.44580564 15.1947351,7.76758388 C14.6831,7.76097074 14.1698699,7.75282678 13.6574986,7.7470709 C13.6458426,7.58070145 13.6343707,7.41353597 13.6229601,7.24655419 C13.2154925,6.77175525 12.791461,6.31538738 12.3497617,5.87347044 C12.0071379,5.53424087 11.6594223,5.20480854 11.3012164,4.88688797 C11.3259939,7.55364441 11.3273349,10.2204556 11.3052393,12.8851971 C11.2831437,15.5499385 11.3026341,13.1901281 11.3012164,13.3425831 C11.6594223,13.0249687 12.0071379,12.6968835 12.3497617,12.3567354 C12.791461,11.9140225 13.2154925,11.4583894 13.6229601,10.9849376 C13.6328984,10.832223 13.6438182,10.6800596 13.6539404,10.5288146 C13.2613801,10.5299168 12.8690038,10.531264 12.4785293,10.534693 C12.5107979,10.0202764 12.5269935,9.5053088 12.5255212,8.99083103 C13.4272628,8.98813679 14.3288816,8.98544254 15.2306232,8.98176858 C15.2332611,9.79738914 15.200195,10.6140507 15.1285416,11.4277118 C15.1240019,11.4855768 15.1167016,11.5420946 15.1130821,11.6006331 C15.0753536,11.6468639 15.0376251,11.6908902 15.0011849,11.7339981 C14.5035983,12.3259966 13.9829451,12.8955226 13.4380599,13.4415965 C12.8884509,13.9862008 12.3160821,14.5094349 11.7241436,15.0042692 C11.680035,15.0416212 11.6343314,15.0793406 11.5909589,15.1155904 C11.5338447,15.1190806 11.4758103,15.1280819 11.4164877,15.1317558 C10.7669442,15.1885798 10.1141493,15.2220742 9.46153846,15.2307692 C9.47957452,11.1551647 9.47957452,7.07608215 9.46153846,3 C10.1141493,3.00955231 10.7669442,3.04047486 11.4164877,3.09760504 C11.4758103,3.10372832 11.5338447,3.10997406 11.5909589,3.11511762 C11.6343314,3.15240838 11.680035,3.18859695 11.7241436,3.22558154 C12.3160821,3.72236305 12.8884509,4.24363766 13.4380599,4.78940539 Z" id="Path" fill="#FFFFFF"></path>
                </g>
                <path d="M33.7225455,19.0805436 C33.6457198,19.0990877 33.4727275,19.0235868 33.4727275,19.0235868 C33.2229095,18.7586712 33.5680882,18.6550893 33.5680882,18.6550893 C33.5680882,18.6550893 33.453924,18.7493992 33.6352435,18.7772153 C33.8179062,18.806356 33.7413491,18.6169414 33.7413491,18.6169414 C33.7413491,18.6169414 33.7507508,18.5226315 33.4727275,18.5599846 C33.1947042,18.5983973 33.2994666,18.9957706 33.2994666,18.9957706 C33.219686,18.9925916 33.1401741,18.9894126 33.0603935,18.9862337 C33.0697952,18.6738983 32.9354845,18.8156281 32.9354845,18.8156281 C32.8965343,18.8725849 32.8589273,18.9295417 32.8199772,18.9862337 C32.6279128,18.7401271 32.5030038,18.7679433 32.5030038,18.7679433 C32.5030038,18.7679433 31.8220482,18.900401 31.6971392,18.8633129 C31.5735733,18.8249001 31.5628284,18.6738983 31.5628284,18.6738983 C31.5628284,18.6738983 31.4191159,18.7109864 31.3143535,18.6550893 C31.208248,18.5983973 31.2660016,18.4367989 31.2660016,18.4367989 C31.1894445,18.1440672 31.0363302,18.0486976 30.9490282,18.0023374 C30.8630693,17.9546526 30.6132513,18.0582346 30.6522014,18.2473843 C30.6898084,18.4367989 30.8630693,18.4937557 30.9302247,18.4937557 C30.9973801,18.4937557 31.083339,18.3231501 30.9785766,18.276525 C30.8724711,18.2288402 30.8241192,18.4275268 30.8241192,18.4275268 C30.8241192,18.4275268 30.6226531,18.0486976 30.9396265,18.1626113 C31.2565999,18.276525 31.0927407,18.5599846 31.0927407,18.5599846 C31.0927407,18.5599846 30.565168,18.9200048 31.0255854,19.0235868 C31.4862713,19.1282284 31.9469572,19.8567461 31.7642946,19.7613765 C31.582975,19.6673315 31.1988462,19.7335604 31.3425588,19.7521044 C31.4862713,19.7706485 31.7844412,20.0925209 31.6689339,20.0739768 C31.5534267,20.0554327 31.0551337,20.546851 31.0927407,20.6793088 C31.1316909,20.8117665 30.9302247,20.8872675 31.5923768,20.9638281 C32.2545289,21.039329 32.1000715,21.1243669 32.2827341,21.2660967 C32.4653968,21.4078265 32.1967752,21.7959277 31.9953091,21.7585746 C31.7938429,21.7204268 31.83145,21.5217401 31.83145,21.5217401 C31.83145,21.5217401 31.83145,21.7482429 31.9657607,21.4555113 C32.1000715,21.1625147 31.9765056,21.3704734 31.8421948,21.3137815 C31.707884,21.2568246 31.6783357,21.56916 31.6783357,21.56916 C31.5797516,21.5246542 31.480093,21.4801484 31.3815089,21.4367023 C31.3815089,21.4367023 31.4674678,21.4170985 31.495673,21.3704734 C31.5252214,21.3230535 31.4768695,21.2184119 31.4191159,21.1998678 C31.3613623,21.1813237 31.2660016,21.2949725 31.2660016,21.2949725 C31.2660016,21.2949725 31.1598961,21.2380156 31.1988462,21.1625147 C31.2377964,21.0859541 31.045732,21.0300569 30.8337896,20.9919091 C30.6226531,20.9534963 30.3929816,20.8117665 30.3258263,20.6978529 C30.2586709,20.5852638 30.172712,20.6419557 30.335228,20.452806 C30.4980127,20.2633914 30.7193568,19.9796669 30.7569638,19.8472091 C30.7959139,19.7147514 30.6804067,19.6011026 30.5554977,19.5822936 C30.4308573,19.5626898 30.3446298,19.7905172 30.3540315,19.6858756 C30.3637019,19.5822936 30.3070228,19.5160647 30.3446298,19.3931439 C30.3835799,19.2699582 30.3164245,19.0421308 30.1055566,18.806356 C29.8936142,18.5692566 29.7979849,18.6447576 29.7979849,18.6447576 C29.7979849,18.6447576 29.6153223,18.6354855 29.6824777,18.806356 C29.7496331,18.975902 29.9040905,18.787547 29.9040905,18.787547 C30.565168,19.2511492 29.9564717,20.4806221 29.9564717,20.4806221 C29.8705128,20.1121246 29.5683135,20.0739768 29.5683135,20.0739768 C29.6921481,20.1971625 29.8084612,20.4610184 29.8084612,20.4610184 C28.8650624,20.4734694 28.8191281,20.2342507 28.6563434,20.1783535 C28.4927529,20.1216616 28.4736808,20.2249787 28.4833512,20.3203482 C28.4927529,20.4143933 28.5220327,20.4713501 28.7140971,20.7177215 C28.9061615,20.9638281 29.21239,21.0011811 29.4340028,21.0011811 C29.6542724,21.0011811 29.7496331,21.3230535 29.6354689,21.4367023 C29.5199617,21.5495563 29.299692,21.5124681 29.2220604,21.4936591 C29.1452346,21.4740554 29.1653812,21.3612013 29.1653812,21.3612013 C29.2156135,21.3675593 29.2671888,21.3736524 29.3184955,21.3800103 C29.5105599,21.2568246 29.2795454,21.1055579 29.2795454,21.1055579 C28.9155632,21.2660967 29.1076276,21.5310122 29.1076276,21.5310122 C29.1076276,21.5310122 29.007969,21.5837304 28.9375902,21.5495563 C28.8661368,21.5143225 28.6689686,21.3291466 28.6689686,21.3291466 C28.6343165,21.3943158 28.573608,21.4192178 28.573608,21.4192178 C28.3815436,21.4139195 28.3111648,21.274309 28.3111648,21.274309 C28.3761712,21.2753687 28.4422521,21.277488 28.5072585,21.2785477 C28.5787118,21.0186656 28.3006885,20.84806 28.3006885,20.84806 C28.3006885,20.84806 28.0887461,20.7434183 28.0833737,20.6326836 C28.0782699,20.5230086 27.8211991,20.2776968 27.8211991,20.2776968 C27.8768037,20.1526567 28.1035203,20.0376834 28.1443508,20.0376834 C28.1841068,20.0376834 28.1191004,19.9568841 28.1191004,19.9568841 C28.049796,19.9568841 27.9804917,19.9568841 27.9114559,19.9568841 C27.8357046,19.9176766 28.159125,19.6972669 28.2252059,19.6320977 C28.2902123,19.5669285 28.9523644,19.5669285 29.0834517,19.5616302 C29.214539,19.5565968 29.3918292,19.4469218 29.2451618,19.4063897 C29.0993003,19.3671822 28.9123398,19.1467725 28.9123398,19.1467725 C28.4978567,19.4312917 27.7749962,19.4220197 27.4821987,19.2813496 C27.1894012,19.1414742 27.0626119,18.9014607 27.0070072,18.5051471 C26.9511339,18.1098931 27.2450059,17.9069678 27.3352627,17.8150421 C27.4298175,17.7186129 28.3049865,17.4176688 28.4675025,17.1691781 C28.6187364,16.9943338 28.7097991,16.8536637 28.6794449,16.4933786 C28.6490906,16.1333584 28.4328503,16.1572008 28.2566346,16.1365374 C28.0793444,16.1166687 27.9364377,16.4634431 27.8862055,16.6539174 C27.8357046,16.843332 27.7244953,17.1940801 27.4013436,17.1940801 C27.0634177,17.1795098 27.1316476,16.8547234 27.1316476,16.8547234 C27.1316476,16.8547234 27.2450059,16.9384367 27.3153847,16.8783008 C27.3857636,16.8184299 27.345739,16.7386904 27.3709894,16.7137883 C27.3962398,16.6880915 27.3196827,16.3370784 27.5251782,16.0340151 C27.6457892,15.8363881 27.9375122,15.9460631 28.027769,15.9677862 C28.1432763,15.9738792 28.341519,15.7245937 28.7097991,16.0930912 C29.1044041,16.4986769 28.8054284,16.9683721 28.6743411,17.2189822 C28.5429851,17.4693274 27.7854724,17.7599397 27.7854724,17.7599397 C27.7854724,17.7599397 26.8705475,18.0902894 27.325861,18.875499 C27.7801,19.6620332 28.8766131,19.0061023 28.8766131,19.0061023 C28.8715093,18.9562982 28.780178,18.5154788 29.027847,18.3456679 C29.2755161,18.1750623 29.6343944,17.5045611 29.6343944,17.5045611 C30.0289995,17.8802113 30.377133,17.5448283 30.377133,17.5448283 C30.377133,17.5448283 30.64468,17.2788531 30.377133,17.0687751 C30.1095859,16.8586971 29.9175215,17.0192359 29.8514406,17.0883788 C29.7864342,17.1588464 29.8369351,17.454757 30.0384012,17.3440223 C30.2409419,17.2343473 30.0131508,17.0987106 30.0131508,17.0987106 C30.0792317,17.1018895 30.1442381,17.1061282 30.210319,17.1090423 C30.210319,17.1090423 30.4222614,17.1638798 30.2806978,17.3948861 C30.1402088,17.6245679 29.9626499,17.5541003 29.7654817,17.4942294 C29.5683135,17.4340936 29.6145164,17.1236126 29.6239182,17.0791068 C29.6343944,17.0335413 29.758229,16.8835991 29.6470196,16.7386904 C29.5145892,16.5709988 29.4286303,16.6155046 29.3458949,16.6404067 C29.2787395,16.6910056 29.2199114,16.7884945 29.3362245,16.8483654 C29.4528063,16.9085012 29.4831605,16.7230603 29.4831605,16.7230603 C29.8264588,17.0687751 29.3625494,17.0459924 29.33515,17.050231 C29.33515,17.050231 29.2314621,17.163085 29.0939279,16.8939309 C29.1202528,16.5773568 29.176932,16.6279557 29.3467008,16.5129823 C29.5336614,16.2729689 29.3877999,16.1995873 29.3206445,16.1240863 C29.2008393,16.0080533 28.9931948,16.1394514 29.1087021,16.2626372 C29.2051372,16.3527084 29.2701436,16.1974679 29.2701436,16.1974679 C29.2701436,16.1974679 29.4044544,16.2936323 29.3184955,16.404367 C29.2083607,16.4904645 28.9217415,16.5535144 28.8819855,16.2626372 C28.8484078,16.1177284 28.8841345,16.0236834 28.9921203,15.9905689 C29.0541719,15.9521562 29.3794726,15.996662 29.4138562,15.6822072 C29.424601,15.588957 29.3026468,15.4639168 29.2209859,15.4244444 C29.1213273,15.3923897 29.007969,15.4864347 29.0888241,15.5868377 C29.1694106,15.6872406 29.2701436,15.6024677 29.2701436,15.6024677 C29.3257483,15.8424811 29.1589343,15.8477794 29.0740499,15.8477794 C28.9878224,15.8477794 28.780178,15.7370448 28.8516313,15.491733 C28.9217415,15.2464212 29.1892886,15.2869533 29.1892886,15.2869533 C29.1892886,15.2869533 29.5137834,15.39133 29.5683135,15.1420445 C29.6239182,14.8914344 29.4968602,14.8336828 29.4968602,14.8336828 C29.4896074,14.8315635 29.4004251,14.7343395 29.3141976,14.8593796 C29.2282387,14.9846847 29.4579101,14.986804 29.4579101,14.986804 C29.5242596,15.1171424 29.3982761,15.196882 29.3813529,15.196882 C29.0224746,15.2517195 29.0130728,14.8914344 29.027847,14.870771 C29.0436957,14.8511672 29.1191783,14.4858487 29.5030385,14.6514209 C29.8871673,14.8159335 29.942772,14.5406862 29.942772,14.5406862 C29.942772,14.5406862 30.047803,14.2023891 29.8106102,14.252988 C29.6300965,14.3544506 29.8063122,14.4797557 29.8715872,14.481875 C29.8535896,14.5367125 29.8503661,14.6535403 29.6300965,14.5894307 C29.4004251,14.5086315 29.5210361,14.3006728 29.589266,14.1515253 C29.6932225,14.052182 30.0077784,14.1051651 30.063383,14.165036 C30.1189877,14.2251719 30.0940059,14.3409399 30.2806978,14.3359065 C30.4673898,14.3306082 30.442408,14.1753677 30.4727622,14.180666 C30.5031165,14.1856994 30.5135927,13.9446263 30.3868033,14.0058218 C30.2608198,14.0656927 30.3720292,14.180666 30.3720292,14.180666 C30.3720292,14.180666 30.3825054,14.281069 30.2355694,14.2355036 C30.0886334,14.1909978 30.1138839,14.0503276 30.1547143,13.954958 C30.1958134,13.8598533 30.3720292,13.7801138 30.5229945,13.8598533 C30.6753029,13.9406526 30.7811398,14.0399959 30.8923491,14.0699314 C31.0035584,14.0998668 31.1757448,14.1051651 31.291252,14.1703343 C31.4075652,14.2355036 31.5187745,14.3804124 31.5187745,14.475517 C31.5187745,14.5706217 31.5848554,14.6463875 31.6353562,14.7012251 C31.664636,14.7486449 31.8494476,14.9422982 31.5523522,14.9775319 C31.0970387,14.9950164 31.1128874,14.9359402 30.9710552,14.8479883 C30.8525931,14.7361939 30.8010178,14.5261159 30.9071233,14.5107508 C31.0140346,14.4961804 31.0183326,14.5459846 30.9785766,14.6254592 C30.9374775,14.7062584 31.023705,14.7115568 31.059163,14.6813564 C31.0948897,14.6514209 31.1757448,14.4071688 30.9638024,14.3928634 C30.731982,14.4042548 30.7569638,14.6100941 30.7789908,14.7030795 C30.8273427,14.8450742 31.0288088,14.9918374 31.0739372,15.0768753 C31.1201401,15.1616482 31.2764779,15.1367462 31.2764779,15.1367462 C31.2952814,15.1232355 31.313279,15.1099897 31.3320825,15.096479 C31.6552342,15.0747559 31.5964061,15.0487942 31.7642946,15.3076167 C31.8209737,15.6302838 31.5115217,15.6149187 31.4285177,15.5558425 C31.3605564,15.4874943 31.3562585,15.2827146 31.499971,15.3105308 C31.5703498,15.3240415 31.4736461,15.4575589 31.6007041,15.4255041 C31.6133293,15.4223251 31.5891533,15.3407311 31.5555756,15.2382088 C31.5335487,15.1698606 31.3479312,15.2246981 31.3248297,15.2805953 C31.2786268,15.3653683 31.3100556,15.4835206 31.3100556,15.4835206 C31.313279,15.4814013 31.0172581,15.4326568 31.1547923,15.4721292 C31.2963559,15.507363 31.210397,15.7068444 31.210397,15.7068444 C31.210397,15.7068444 31.1494199,15.7577082 31.3269787,15.7317464 C31.5031944,15.7068444 31.5848554,15.9169224 31.5335487,16.0379888 C31.4833164,16.1582604 31.3699582,16.1073967 31.2732544,16.112695 C31.1778938,16.1177284 31.2208732,16.012292 31.2208732,16.012292 C31.2565999,15.9646072 31.2942069,15.9738792 31.335306,15.9635475 C31.2219477,15.7722785 30.9648769,15.8848676 30.8977215,15.9076504 C30.8233133,15.90871 30.4749112,16.0318957 30.462286,15.9802372 C30.3991599,15.9232804 30.3532257,15.8777149 30.3991599,15.8104264 C30.4507353,15.7669802 30.4727622,15.8228774 30.4727622,15.8228774 C30.5157417,15.8488391 30.5554977,15.8549322 30.5922988,15.8175791 C30.5965968,15.7410185 30.5409921,15.686181 30.462286,15.6604842 C30.462286,15.6604842 30.3059483,15.6935986 30.2860703,15.7608872 C30.2669981,15.827116 30.2481946,15.9418245 30.3005758,15.9895092 C30.3540315,16.037194 30.3782075,16.1415708 30.609222,16.1942889 C30.8399679,16.2472721 30.7822142,16.2946919 31.1483454,16.3712525 C31.5136707,16.4467534 31.6007041,16.6952442 31.6920354,16.7998858 C31.7833667,16.9053222 31.8556259,17.4393919 31.8556259,17.4725064 C31.8556259,17.5064155 31.8650276,17.4960838 31.8650276,17.4960838 C31.8650276,17.4960838 31.2974303,17.163085 30.916525,17.3005762 C30.916525,17.3005762 31.455917,17.3771368 31.6584577,17.5821814 C31.8599238,17.7869611 32.0476903,17.8542496 32.2838086,18.1212845 C32.5199269,18.3883193 33.035143,18.4791853 33.035143,18.4791853 C33.035143,18.4791853 33.3185388,18.483424 33.7139497,18.2744056 C33.7991027,18.4389182 33.8850616,18.6034307 33.9710205,18.7679433 C33.888285,18.8725849 33.805281,18.975902 33.7225455,19.0805436 Z M30.9659514,15.4183514 C30.9659514,15.4183514 30.7760359,15.3229818 30.7161333,15.4564992 C30.6562307,15.5900166 30.7854377,15.6800879 30.9133016,15.6851213 C30.9133016,15.6851213 30.8598459,15.5640549 30.9154505,15.5187544 C30.9710552,15.4731889 30.9681003,15.4090793 30.9659514,15.4183514 Z M31.4736461,16.413639 C31.458066,16.4552307 31.8220482,16.5460968 31.9816094,17.3275976 C31.9816094,17.3275976 32.6018565,16.733657 32.7015151,16.7582941 C32.7015151,16.7582941 32.9156065,16.6507384 32.9113085,16.7582941 C32.9070106,16.8661147 32.9491842,16.824523 32.9491842,16.824523 L33.0708697,16.7418693 C33.0708697,16.7418693 32.8315279,16.6133853 32.9196358,16.3972142 C33.0077436,16.1818379 33.1294292,16.2896585 33.1463524,16.3309854 C33.1630069,16.3723122 33.1673048,16.5254334 32.9784639,16.4634431 C32.9784639,16.4634431 32.9784639,16.654977 33.2503089,16.654977 C33.5229597,16.654977 33.49368,16.2896585 33.4727275,16.2440931 C33.451775,16.1985276 33.2712614,15.8912256 32.9365589,16.0236834 C32.6018565,16.1561411 32.5304032,16.3890019 32.4339681,16.4303287 C32.3372643,16.4716555 31.4736461,16.413639 31.4736461,16.413639 Z M29.1422798,24.9696157 C29.1473836,24.874511 29.152756,24.7802011 29.1578598,24.6861561 C29.1578598,24.6861561 27.4926749,24.3279903 27.8410771,23.0738802 C28.1894792,21.8208298 30.335228,22.2346278 30.4265593,22.2491982 C30.5168162,22.2635036 31.337455,22.4168897 31.5483229,23.0140093 C31.7602652,23.610864 31.8620728,25.6970737 31.8620728,25.6970737 C31.8620728,25.6970737 30.9890528,25.7002527 30.5503939,25.9249011 C30.1106604,26.1484898 30.0803062,26.6263974 30.1106604,26.8200506 C30.1410146,27.0144986 30.1568633,27.521547 30.1568633,27.521547 C30.2828468,27.5268453 30.4088303,27.5318787 30.5345452,27.5361173 C30.504191,27.4118719 30.4738367,27.2876265 30.4442884,27.1636461 C30.4442884,27.1636461 30.4139341,26.9845632 30.5503939,26.9101219 C30.6857791,26.8354157 30.8378189,26.7599148 30.95843,26.7599148 C31.0793097,26.7599148 31.9418534,26.7453445 31.9418534,26.7453445 C31.9826839,27.436774 32.0224399,28.1289982 32.063539,28.8201629 C32.0278123,28.8254612 31.9931601,28.8296998 31.9574335,28.8347332 C31.9722076,28.9301028 31.9877877,29.0241478 32.0025619,29.1184577 C32.0025619,29.1184577 33.3196132,29.1783286 33.5009328,28.2076782 C33.4453281,26.6709032 33.3897235,25.1333335 33.3341188,23.5965585 C33.4652061,23.5716565 33.596562,23.5467544 33.7276494,23.5218524 C33.7381256,25.4467286 33.7486018,27.3726644 33.7580036,29.2972757 C33.7580036,29.2972757 31.458066,28.6858507 30.4894168,30.0435427 C29.5210361,31.4022945 30.9930821,32.4836796 31.31113,32.6389201 C31.6017785,32.7856833 32.2754813,32.9700645 32.8347514,33 C32.8253496,32.8953584 32.8148734,32.8497929 32.805203,32.7454162 C32.805203,32.7454162 31.4244883,32.6834259 30.8482951,31.858479 C30.4297828,31.2841421 30.2618943,30.4356177 31.7527438,30.0692396 C33.1871828,29.8530685 34.0309231,30.5961565 34.0309231,30.5961565 C34.4999363,30.3227637 34.9689495,30.0321514 35.4379627,29.7587586 C35.36248,29.6935893 35.2869974,29.6461695 35.2112461,29.5810002 C35.094933,29.6408711 34.9794257,29.701007 34.8631126,29.7598182 C34.6920007,29.6708066 34.5198143,29.5810002 34.348971,29.4919886 C34.3382261,28.6164428 34.3277499,27.740897 34.3183481,26.8645565 C34.5356629,26.8107786 34.7519033,26.7559411 34.9689495,26.7008387 C34.9689495,26.7008387 35.5134453,27.3125286 35.6195508,27.8352069 C35.7256563,28.3576203 36.2397979,30.3871382 36.6792628,30.5360207 C36.6792628,30.5360207 37.5702804,30.2297784 38.1757533,29.7370355 C38.7812263,29.2445575 38.9238643,29.1483932 38.9238643,29.1483932 C38.832533,29.0739519 38.7675266,28.9992457 38.6772697,28.9248045 C38.3686236,29.2032307 38.0613205,29.4649672 37.7537489,29.7433935 C37.7537489,29.7433935 37.2847357,29.4019173 36.9973107,27.4325353 C36.7265402,26.4340687 36.7066622,26.6441467 36.3037299,26.0613326 C36.2712267,26.0292778 39.6741242,24.3674627 39.3770288,22.193301 C39.1546102,21.9148748 39.2816682,21.7670519 37.707546,20.9990618 C37.707546,20.9990618 35.6458757,22.4198038 35.2869974,22.5814022 C34.928119,22.7167741 33.9092375,23.3430344 33.3499675,23.3430344 C33.2092098,23.2664738 33.6510922,21.9034834 31.0341812,21.4772343 C27.8778782,21.3034498 27.6226878,22.2449595 27.4475465,22.5066961 C27.4024181,22.6195501 26.8799492,24.2267926 29.1422798,24.9696157 Z M27.6836649,22.6526645 C27.6836649,22.6526645 28.3562932,21.9127555 29.2040627,21.8931517 C30.0510264,21.8746076 31.2627782,22.1021701 31.4360391,22.3111884 C31.6090313,22.5191471 31.8209737,22.5390158 32.0519882,23.203159 L32.2639306,26.182399 L31.1284674,26.2592245 C31.1284674,26.2592245 30.4160831,26.2208117 30.377133,26.7331583 C30.377133,26.7331583 30.6659011,26.4298301 30.9554751,26.4867869 C31.2439747,26.5437437 32.2827341,26.4867869 32.2827341,26.4867869 L32.455995,28.7830747 L32.725691,28.6122042 L32.455995,23.7155056 C32.455995,23.7155056 32.7643725,22.4621903 31.0897859,21.9127555 C29.4149306,21.362261 27.8569257,21.9697123 27.6836649,22.6526645 Z M31.0121543,30.0620868 C31.0121543,30.0620868 32.0288868,29.396619 34.0696046,30.2265994 L34.3153933,30.0620868 C34.3153933,30.0620868 32.2744069,28.9155324 31.0121543,30.0620868 Z M35.2501962,26.5344717 C35.2501962,26.5344717 35.8022135,26.9244274 36.1138144,28.3907348 C36.4254154,29.8573071 36.5933039,30.0228793 36.856553,30.2483224 L37.1684226,30.0816906 C37.1684226,30.0816906 36.5933039,29.5383488 36.4254154,28.249005 C36.257527,26.9596611 35.6216998,26.4038684 35.6216998,26.4038684 L35.2501962,26.5344717 Z M35.3635545,22.920759 L35.7538616,22.7252514 C35.7538616,22.7252514 36.8745506,23.2757458 37.084344,23.5769548 C37.2941374,23.8789585 37.6068129,23.9266433 37.3424893,24.890141 C37.3424893,24.890141 37.2471287,25.1558513 36.8871758,25.4218265 C36.8871758,25.4218265 37.4988271,24.6241659 36.856553,23.9441277 C36.215622,23.2643545 35.3635545,22.920759 35.3635545,22.920759 Z M36.485318,22.2171434 C36.485318,22.2171434 37.3247603,21.7026775 37.3247603,21.6488996 C37.3247603,21.5961814 38.3675491,22.1993941 38.5480628,22.3763576 C38.727502,22.5543809 39.1293598,22.8680408 38.7696755,23.4527094 C38.4097227,24.0384376 38.1577557,24.2514297 38.1577557,24.2514297 C38.1577557,24.2514297 38.3079151,23.6182816 37.6183636,23.0977226 C36.9290808,22.5782233 36.485318,22.2171434 36.485318,22.2171434 Z M34.2785921,19.0805436 C34.3551493,19.0990877 34.5273357,19.0235868 34.5273357,19.0235868 C34.7768851,18.7586712 34.4317064,18.6550893 34.4317064,18.6550893 C34.4317064,18.6550893 34.5472137,18.7493992 34.364551,18.7772153 C34.1818884,18.806356 34.2587141,18.6169414 34.2587141,18.6169414 C34.2587141,18.6169414 34.2490438,18.5226315 34.5273357,18.5599846 C34.8053589,18.5983973 34.7003279,18.9957706 34.7003279,18.9957706 C34.7801085,18.9925916 34.8598891,18.9894126 34.9396697,18.9862337 C34.930268,18.6738983 35.0645787,18.8156281 35.0645787,18.8156281 C35.1032602,18.8725849 35.1411359,18.9295417 35.1798174,18.9862337 C35.3718818,18.7401271 35.4967908,18.7679433 35.4967908,18.7679433 C35.4967908,18.7679433 36.1777464,18.900401 36.3026554,18.8633129 C36.4275644,18.8249001 36.4369661,18.6738983 36.4369661,18.6738983 C36.4369661,18.6738983 36.5806787,18.7109864 36.6867842,18.6550893 C36.7915466,18.5983973 36.7337929,18.4367989 36.7337929,18.4367989 C36.8106187,18.1440672 36.9648075,18.0486976 37.0507663,18.0023374 C37.1367252,17.9546526 37.3865433,18.0582346 37.3478618,18.2473843 C37.3099861,18.4367989 37.1367252,18.4937557 37.0695698,18.4937557 C37.0024145,18.4937557 36.9164556,18.3231501 37.0225611,18.276525 C37.1273235,18.2288402 37.1756754,18.4275268 37.1756754,18.4275268 C37.1756754,18.4275268 37.3771415,18.0486976 37.0601681,18.1626113 C36.7434633,18.276525 36.9070538,18.5599846 36.9070538,18.5599846 C36.9070538,18.5599846 37.4348951,18.9200048 36.9742092,19.0235868 C36.5135233,19.1282284 36.0528373,19.8567461 36.2355,19.7613765 C36.4181626,19.6673315 36.8009483,19.7335604 36.6572358,19.7521044 C36.5135233,19.7706485 36.2166965,20.0925209 36.3308606,20.0739768 C36.4463679,20.0554327 36.9449295,20.546851 36.9070538,20.6793088 C36.7485671,20.7786521 37.3970195,20.7868645 37.0926713,20.9638281 C36.4315937,21.039329 36.5849766,21.1243669 36.402314,21.2660967 C36.2196513,21.4078265 36.4882729,21.7959277 36.689739,21.7585746 C36.8912052,21.7204268 36.8535981,21.5217401 36.8535981,21.5217401 C36.8535981,21.5217401 36.8535981,21.7482429 36.7192874,21.4555113 C36.5849766,21.1625147 36.7098856,21.3704734 36.8441964,21.3137815 C36.9785071,21.2568246 37.0067124,21.56916 37.0067124,21.56916 C37.106371,21.5246542 37.2049551,21.4801484 37.3046137,21.4367023 C37.3046137,21.4367023 37.2175803,21.4170985 37.1893751,21.3704734 C37.1609012,21.3230535 37.2081786,21.2184119 37.2659322,21.1998678 C37.3236858,21.1813237 37.4190465,21.2949725 37.4190465,21.2949725 C37.4190465,21.2949725 37.525152,21.2380156 37.4862018,21.1625147 C37.4485948,21.0859541 37.6403906,21.0300569 37.8515271,20.9919091 C38.062395,20.9534963 37.7212457,20.9246206 37.7884011,20.8107069 C37.8555565,20.6978529 38.0255939,20.7073898 37.8630779,20.5179752 C37.7002932,20.3285606 37.3414148,20.0024496 37.3027333,19.8699919 C37.3005844,19.7261427 37.3792905,19.5814988 37.4442969,19.5822936 C37.5692059,19.5626898 37.6551648,19.7905172 37.645763,19.6858756 C37.6363613,19.5822936 37.6941149,19.5160647 37.6551648,19.3931439 C37.6164833,19.2699582 37.6836387,19.0421308 37.8955811,18.806356 C38.106449,18.5692566 38.2018096,18.6447576 38.2018096,18.6447576 C38.2018096,18.6447576 38.3844723,18.6354855 38.3173169,18.806356 C38.2501615,18.975902 38.0970472,18.787547 38.0970472,18.787547 C37.4348951,19.2511492 38.0433229,20.4806221 38.0433229,20.4806221 C38.1295504,20.1121246 38.4328241,20.0739768 38.4328241,20.0739768 C38.3079151,20.1971625 38.1913334,20.4610184 38.1913334,20.4610184 C39.1347322,20.4734694 39.1809351,20.2342507 39.3434511,20.1783535 C39.5073103,20.1216616 39.5261138,20.2249787 39.516712,20.3203482 C39.5073103,20.4143933 39.4777619,20.4713501 39.2856975,20.7177215 C39.0949762,20.9638281 38.7874046,21.0011811 38.5671349,21.0011811 C38.3455221,21.0011811 38.2501615,21.3230535 38.3656687,21.4367023 C38.4798329,21.5495563 38.7014457,21.5124681 38.7780028,21.4936591 C38.8545599,21.4740554 38.8357564,21.3612013 38.8357564,21.3612013 C38.7841811,21.3675593 38.7328744,21.3736524 38.681299,21.3800103 C38.4905778,21.2568246 38.7202492,21.1055579 38.7202492,21.1055579 C39.0842313,21.2660967 38.8935101,21.5310122 38.8935101,21.5310122 C38.8935101,21.5310122 38.9920942,21.5837304 39.0632789,21.5495563 C39.1336577,21.5143225 39.3308259,21.3291466 39.3308259,21.3291466 C39.3654781,21.3943158 39.4264552,21.4192178 39.4264552,21.4192178 C39.6185196,21.4139195 39.6897043,21.274309 39.6897043,21.274309 C39.6236234,21.2753687 39.5575425,21.277488 39.4925361,21.2785477 C39.4210827,21.0186656 39.6993747,20.84806 39.6993747,20.84806 C39.6993747,20.84806 39.911317,20.7434183 39.9164209,20.6326836 C39.9217933,20.5230086 40.1799386,20.2776968 40.1799386,20.2776968 C40.1243339,20.1526567 39.8965429,20.0376834 39.8557124,20.0376834 C39.8156878,20.0376834 39.8817687,19.9568841 39.8817687,19.9568841 C39.9499985,19.9568841 40.0193029,19.9568841 40.0886073,19.9568841 C40.1640899,19.9176766 39.8409382,19.6972669 39.7748573,19.6320977 C39.7098509,19.5669285 39.0476988,19.5669285 38.9163429,19.5616302 C38.7852556,19.5565968 38.6079654,19.4469218 38.7549013,19.4063897 C38.9018373,19.3671822 39.0885293,19.1467725 39.0885293,19.1467725 C39.5019378,19.4312917 40.225067,19.4220197 40.5175958,19.2813496 C40.8103933,19.1414742 40.9374513,18.9014607 40.993056,18.5051471 C41.0486606,18.1098931 40.7547887,17.9069678 40.6645318,17.8150421 C40.5702457,17.7186129 39.6950767,17.4176688 39.5322921,17.1691781 C39.3813268,16.9943338 39.2899954,16.8536637 39.3203497,16.4933786 C39.3509725,16.1333584 39.5669442,16.1572008 39.7442345,16.1365374 C39.9207188,16.1166687 40.0633568,16.4634431 40.1135891,16.6539174 C40.1640899,16.843332 40.2752992,17.1940801 40.5984509,17.1940801 C40.9374513,17.1795098 40.8681469,16.8547234 40.8681469,16.8547234 C40.8681469,16.8547234 40.7558631,16.9384367 40.6844098,16.8783008 C40.6142996,16.8184299 40.6540556,16.7386904 40.6288052,16.7137883 C40.6038234,16.6880915 40.6803805,16.3370784 40.4746164,16.0340151 C40.3540053,15.8363881 40.0622823,15.9460631 39.9720255,15.9677862 C39.8565183,15.9738792 39.65935,15.7245937 39.2899954,16.0930912 C38.8964649,16.4986769 39.1946348,16.9683721 39.3257221,17.2189822 C39.4568094,17.4693274 40.2143221,17.7599397 40.2143221,17.7599397 C40.2143221,17.7599397 41.1295157,18.0902894 40.6750081,18.875499 C40.2196946,19.6620332 39.1231815,19.0061023 39.1231815,19.0061023 C39.1282853,18.9562982 39.2196166,18.5154788 38.9719475,18.3456679 C38.7245471,18.1750623 38.3656687,17.5045611 38.3656687,17.5045611 C37.9721382,17.8802113 37.6226616,17.5448283 37.6226616,17.5448283 C37.6226616,17.5448283 37.3551145,17.2788531 37.6226616,17.0687751 C37.8912831,16.8586971 38.0833475,17.0192359 38.1483539,17.0883788 C38.2144348,17.1588464 38.1642026,17.454757 37.961662,17.3440223 C37.7591213,17.2343473 37.9866438,17.0987106 37.9866438,17.0987106 C37.9205629,17.1018895 37.8555565,17.1061282 37.7894756,17.1090423 C37.7894756,17.1090423 37.5775332,17.1638798 37.7190967,17.3948861 C37.8609289,17.6245679 38.0371446,17.5541003 38.2343128,17.4942294 C38.4317496,17.4340936 38.3855467,17.1236126 38.376145,17.0791068 C38.3656687,17.0335413 38.2429087,16.8835991 38.3530435,16.7386904 C38.4852053,16.5709988 38.5711642,16.6155046 38.6541683,16.6404067 C38.7213237,16.6910056 38.7801518,16.7884945 38.66357,16.8483654 C38.5480628,16.9085012 38.5177085,16.7230603 38.5177085,16.7230603 C38.1736043,17.0687751 38.6372451,17.0459924 38.665719,17.050231 C38.665719,17.050231 38.768601,17.163085 38.9058666,16.8939309 C38.8798104,16.5773568 38.8242057,16.6279557 38.6541683,16.5129823 C38.4664018,16.2729689 38.6122633,16.1995873 38.6794187,16.1240863 C38.7989553,16.0080533 39.0076742,16.1394514 38.8913611,16.2626372 C38.7946573,16.3527084 38.7296509,16.1974679 38.7296509,16.1974679 C38.7296509,16.1974679 38.5953402,16.2936323 38.681299,16.404367 C38.7917025,16.4904645 39.0780531,16.5535144 39.1188835,16.2626372 C39.1513867,16.1177284 39.1159287,16.0236834 39.0076742,15.9905689 C38.9458913,15.9521562 38.6205906,15.996662 38.5859384,15.6822072 C38.5754622,15.588957 38.6982222,15.4639168 38.7790773,15.4244444 C38.8787359,15.3923897 38.9920942,15.4864347 38.9112391,15.5868377 C38.830384,15.6872406 38.7296509,15.6024677 38.7296509,15.6024677 C38.6740463,15.8424811 38.8408602,15.8477794 38.9268191,15.8477794 C39.0119722,15.8477794 39.2196166,15.7370448 39.1484319,15.491733 C39.0780531,15.2464212 38.810506,15.2869533 38.810506,15.2869533 C38.810506,15.2869533 38.4873543,15.39133 38.4317496,15.1420445 C38.376145,14.8914344 38.5029343,14.8336828 38.5029343,14.8336828 C38.5104558,14.8315635 38.5996381,14.7343395 38.685597,14.8593796 C38.7715559,14.9846847 38.542959,14.986804 38.542959,14.986804 C38.4758036,15.1171424 38.6025929,15.196882 38.6184416,15.196882 C38.97732,15.2517195 38.9867217,14.8914344 38.9719475,14.870771 C38.957442,14.8511672 38.8808848,14.4858487 38.4967561,14.6514209 C38.1126273,14.8159335 38.0570226,14.5406862 38.0570226,14.5406862 C38.0570226,14.5406862 37.9522602,14.2023891 38.1902589,14.252988 C38.3696981,14.3544506 38.1934823,14.4797557 38.1295504,14.481875 C38.1472794,14.5367125 38.1494284,14.6535403 38.3696981,14.5894307 C38.5996381,14.5086315 38.479027,14.3006728 38.4107972,14.1515253 C38.3068406,14.052182 37.9920162,14.1051651 37.9364115,14.165036 C37.8808069,14.2251719 37.9060573,14.3409399 37.7190967,14.3359065 C37.5324047,14.3306082 37.5576552,14.1753677 37.5273009,14.180666 C37.4966781,14.1856994 37.4862018,13.9446263 37.6132598,14.0058218 C37.7392433,14.0656927 37.628034,14.180666 37.628034,14.180666 C37.628034,14.180666 37.6183636,14.281069 37.7642251,14.2355036 C37.9111611,14.1909978 37.8861793,14.0503276 37.8450802,13.954958 C37.8053242,13.8598533 37.628034,13.7801138 37.4768001,13.8598533 C37.3247603,13.9406526 37.2186548,14.0399959 37.1074455,14.0699314 C36.9962362,14.0998668 36.8251243,14.1051651 36.7088111,14.1703343 C36.5922294,14.2355036 36.4810201,14.3804124 36.4810201,14.475517 C36.4810201,14.5706217 36.4160137,14.6463875 36.3655128,14.7012251 C36.3351586,14.7486449 36.1506156,14.9422982 36.4474424,14.9775319 C36.9027559,14.9950164 36.8871758,14.9359402 37.0287394,14.8479883 C37.148276,14.7361939 37.1987768,14.5261159 37.0926713,14.5107508 C36.9868344,14.4961804 36.981462,14.5459846 37.0214866,14.6254592 C37.0623171,14.7062584 36.9763582,14.7115568 36.9406315,14.6813564 C36.9059793,14.6514209 36.8240498,14.4071688 37.0359922,14.3928634 C37.2680812,14.4042548 37.2428307,14.6100941 37.2208038,14.7030795 C37.1735264,14.8450742 36.9709857,14.9918374 36.9258573,15.0768753 C36.8807289,15.1616482 36.7233167,15.1367462 36.7233167,15.1367462 C36.7055877,15.1232355 36.6867842,15.1099897 36.667712,15.096479 C36.3445603,15.0747559 36.4044629,15.0487942 36.2365745,15.3076167 C36.1788208,15.6302838 36.4893473,15.6149187 36.5712769,15.5558425 C36.6395068,15.4874943 36.6435361,15.2827146 36.4998236,15.3105308 C36.4297134,15.3240415 36.5261485,15.4575589 36.3990905,15.4255041 C36.3864653,15.4223251 36.4106412,15.3407311 36.4442189,15.2382088 C36.4673204,15.1698606 36.652132,15.2246981 36.6763079,15.2805953 C36.7214363,15.3653683 36.689739,15.4835206 36.689739,15.4835206 C36.6878586,15.4814013 36.9825365,15.4326568 36.8450022,15.4721292 C36.7034387,15.507363 36.7893976,15.7068444 36.7893976,15.7068444 C36.7893976,15.7068444 36.8503747,15.7577082 36.6730845,15.7317464 C36.4968687,15.7068444 36.4160137,15.9169224 36.4662459,16.0379888 C36.5167467,16.1582604 36.630105,16.1073967 36.7265402,16.112695 C36.8221694,16.1177284 36.7789213,16.012292 36.7789213,16.012292 C36.7434633,15.9646072 36.7055877,15.9738792 36.6658317,15.9635475 C36.7789213,15.7722785 37.0359922,15.8848676 37.1023417,15.9076504 C37.1767498,15.90871 37.525152,16.0318957 37.5388517,15.9802372 C37.6017091,15.9232804 37.6468375,15.8777149 37.6006346,15.8104264 C37.5493279,15.7669802 37.5273009,15.8228774 37.5273009,15.8228774 C37.4840529,15.8488391 37.4442969,15.8549322 37.4074957,15.8175791 C37.4034664,15.7410185 37.4590711,15.686181 37.5377772,15.6604842 C37.5377772,15.6604842 37.6941149,15.6935986 37.7139929,15.7608872 C37.7327964,15.827116 37.7518685,15.9418245 37.6992187,15.9895092 C37.6468375,16.037194 37.6226616,16.1415708 37.3908412,16.1942889 C37.1598267,16.2472721 37.2175803,16.2946919 36.8525236,16.3712525 C36.4863925,16.4467534 36.400165,16.6952442 36.3077592,16.7998858 C36.2166965,16.9053222 36.1441687,17.4393919 36.1441687,17.4725064 C36.1441687,17.5064155 36.1347669,17.4960838 36.1347669,17.4960838 C36.1347669,17.4960838 36.7034387,17.163085 37.0832695,17.3005762 C37.0832695,17.3005762 36.5438775,17.3771368 36.3416055,17.5821814 C36.1401393,17.7869611 35.9521043,17.8542496 35.7159859,18.1212845 C35.4798676,18.3883193 34.9646515,18.4791853 34.9646515,18.4791853 C34.9646515,18.4791853 34.6815244,18.483424 34.2869194,18.2744056 C34.2009605,18.4389182 34.114733,18.6034307 34.0287741,18.7679433 C34.1117781,18.8725849 34.1945136,18.975902 34.2785921,19.0805436 Z M37.0341118,15.4183514 C37.0341118,15.4183514 37.2240272,15.3229818 37.2836612,15.4564992 C37.3446383,15.5900166 37.2146255,15.6800879 37.086493,15.6851213 C37.086493,15.6851213 37.1399487,15.5640549 37.084344,15.5187544 C37.0287394,15.4731889 37.0319628,15.4090793 37.0341118,15.4183514 Z M36.5334013,16.4613238 C36.5503244,16.5026506 36.1860736,16.5937816 36.0267811,17.3750174 C36.0267811,17.3750174 35.4065339,16.7810768 35.3058009,16.8059789 C35.3058009,16.8059789 35.092784,16.6984232 35.0970819,16.8059789 C35.1011113,16.9135346 35.0592063,16.8722078 35.0592063,16.8722078 L34.9375207,16.7892892 C34.9375207,16.7892892 35.175788,16.6610701 35.088486,16.444899 C35.0003782,16.2284631 34.8786926,16.3370784 34.8620381,16.3786702 C34.8451149,16.419997 34.8410856,16.5731181 35.0299265,16.5111279 C35.0299265,16.5111279 35.0299265,16.7023969 34.7570071,16.7023969 C34.4851621,16.7023969 34.5147104,16.3370784 34.5356629,16.2917779 C34.5566154,16.2451527 34.7360546,15.9389104 35.0718315,16.0713681 C35.4065339,16.2038259 35.4779873,16.4364217 35.5744224,16.4780135 C35.6708575,16.5193403 36.5334013,16.4613238 36.5334013,16.4613238 Z M33.9565149,13.1705432 C33.9565149,13.1705432 33.8702874,12.8084036 34.1673828,13.139548 C34.1673828,13.139548 34.1284327,13.1790204 34.1442814,13.239951 C34.1598614,13.3019413 34.1284327,13.3713491 34.1757101,13.3941319 C34.221913,13.4179743 34.511487,13.4789048 34.386578,13.6031502 C34.261669,13.7263359 34.2847704,13.5483127 34.2847704,13.5483127 C34.2847704,13.5483127 34.261669,13.6487157 34.386578,13.7334886 C34.511487,13.8185265 34.386578,13.8267389 34.3393006,13.8267389 C34.2930977,13.8267389 33.7139497,13.842104 33.7139497,13.842104 C33.7139497,13.842104 33.6897737,13.7035532 33.8157572,13.6879232 C33.9406662,13.6725581 33.9637677,13.6259329 33.9637677,13.6259329 L33.9489935,13.52553 L33.8630346,13.5875202 L33.82301,13.5183772 L33.7453784,13.6330857 L33.6594195,13.6031502 C33.6594195,13.6031502 33.5734606,13.425127 33.8702874,13.4023442 L33.9565149,13.2865762 C33.9565149,13.2865762 33.9175648,13.1551781 33.9565149,13.1705432 Z M33.0098926,14.2821287 L32.9712111,14.1507306 L33.0719442,14.1351006 L33.1976591,14.0275449 L33.3856941,14.0813227 L33.2911394,14.1507306 L33.3456695,14.2664987 L33.4087956,14.2045084 L33.471653,14.1123178 L33.5807134,14.1351006 L33.6038148,14.3202765 L33.5030818,14.3131238 C33.5030818,14.3131238 33.4316284,14.3430593 33.5807134,14.4363095 C33.7297983,14.5282352 33.596562,14.5367125 33.5807134,14.5987027 C33.5651333,14.6596333 33.5261832,14.7290412 33.4947545,14.6596333 C33.4633258,14.5904904 33.4316284,14.5987027 33.4316284,14.5987027 L33.4243756,14.4826697 L33.3698455,14.3586893 L33.2680379,14.3284889 L33.2911394,14.4206795 L33.2680379,14.5282352 L33.1662304,14.5592303 L33.0644228,14.5210825 L32.9943126,14.4050495 L33.1117002,14.3284889 L33.1737518,14.2355036 L33.0098926,14.2821287 Z M34.6605719,14.5904904 L34.4725369,14.6132731 L34.4255281,14.2280859 L34.6992534,14.0884754 L34.8714398,14.1351006 L35.2784015,14.05854 L34.965726,14.5054525 L34.7623795,14.5438652 L34.7075807,14.4278322 L34.5587644,14.3586893 L34.6605719,14.5904904 Z M34.8714398,14.2355036 L34.8252369,14.2974938 L34.8870199,14.3822668 L34.9974233,14.2892814 L34.8956158,14.2736514 L34.8714398,14.2355036 Z M34.6605719,14.1507306 L34.5042342,14.2582863 L34.6605719,14.3284889 L34.6605719,14.1507306 Z M33.7139497,15.5081577 L33.9017161,15.3386118 C33.9017161,15.3386118 34.0110451,15.2930463 33.9951964,15.2225788 C33.9796164,15.1534359 33.8157572,15.3229818 33.7760012,15.3314591 C33.7370511,15.3386118 33.761227,14.9142171 33.761227,14.9142171 L33.8630346,14.7984491 C33.8630346,14.7984491 33.9092375,14.7218885 33.8001772,14.7218885 C33.6897737,14.7218885 33.7297983,14.8532866 33.7297983,14.8532866 L33.7214711,14.5282352 C33.7214711,14.5282352 33.7528998,14.4135268 33.8630346,14.4744574 L33.9637677,14.3131238 C33.9637677,14.3131238 33.761227,14.4590923 33.7139497,14.1732484 C33.6666723,13.8887291 34.1598614,13.873364 34.237493,13.9880725 C34.3161991,14.1041055 34.3634765,13.958137 34.3478965,14.3284889 C34.3320478,14.6980461 34.3551493,15.9097697 34.3551493,15.9097697 C34.3551493,15.9097697 34.0655752,16.0030199 34.221913,16.1034229 C34.3793252,16.2027662 34.2460889,16.2576038 34.2071388,16.2875392 C34.1673828,16.3185343 34.261669,16.2875392 34.2930977,16.3961546 C34.3237205,16.5037103 34.2847704,16.4655624 34.3006191,16.7045163 C34.3161991,16.9434701 34.3089464,17.2293139 34.3089464,17.2293139 C34.3089464,17.2293139 34.1757101,17.0057252 34.1211799,17.0677154 C34.0655752,17.1289109 34.1359541,17.0751331 34.1673828,17.2136839 C34.1988115,17.3522347 34.2071388,17.159906 34.2775176,17.3760771 C34.3478965,17.5925131 34.3478965,23.3099199 34.3478965,23.3099199 L33.7297983,23.2942899 L33.761227,19.5907709 L33.9175648,19.4747379 L34.0035237,19.4365901 L34.0035237,19.2967147 L33.8388587,19.4127477 L33.7760012,19.4281128 L33.6983696,17.862462 L33.8471859,17.7694767 L33.7214711,17.5996658 L33.7139497,15.5081577 Z M33.9951964,18.2018188 L33.9017161,18.3250045 L33.9951964,18.3944124 L34.1284327,18.2786443 L33.9951964,18.2018188 Z M34.1915587,17.7000688 L33.9092375,18.0166428 L33.8933888,18.1244635 L34.0583225,18.0322729 C34.0583225,18.0322729 34.3006191,17.8158369 34.1915587,17.7000688 Z M33.8576622,14.1340409 L33.8724364,14.1867591 C33.8724364,14.1867591 33.9973454,14.1960311 34.0067471,14.2198735 L34.1085547,14.0863561 L34.0024492,14.04291 L33.8576622,14.1340409 Z M34.1609359,14.3337872 C34.1609359,14.3337872 34.1222544,14.5820131 33.9637677,14.6058555 C33.805281,14.6296979 33.9637677,14.7301008 34.0067471,14.7012251 C34.0508011,14.673144 34.2670414,14.4869084 34.1609359,14.3337872 Z M34.1569066,14.7589766 C34.1569066,14.7589766 34.0508011,14.9348805 33.9688715,14.967995 C33.8872105,15.0021691 33.9248176,15.1068107 34.0215213,15.0498539 C34.1179564,14.992897 34.2385675,14.8781886 34.2186895,14.773547 C34.199886,14.6681106 34.1663083,14.7155305 34.1569066,14.7589766 Z M33.8912399,15.5455108 C33.8912399,15.5455108 34.0991529,15.6273697 34.0645008,15.7410185 C34.0309231,15.8559918 33.9154158,15.9656669 33.8724364,15.9987813 C33.8294569,16.0318957 33.9113865,16.1611745 34.0121196,16.0703085 C34.1128526,15.9802372 34.1515341,15.7555888 34.1421324,15.6935986 C34.1327306,15.6313435 34.1085547,15.3841773 33.8912399,15.5455108 Z M34.0991529,16.3847632 L33.9688715,16.514042 C33.9688715,16.514042 33.9352938,16.6186836 34.0360269,16.633254 C34.1367599,16.6475594 34.0456972,16.4520518 34.1757101,16.4282094 C34.3057229,16.404367 34.1128526,16.2989306 34.0991529,16.3847632 Z M33.9879436,16.8764464 C33.9879436,16.8764464 33.7475273,16.8287616 33.8240845,17.1101019 C33.9009102,17.3917071 34.0309231,17.3625664 34.0309231,17.3625664 C34.0309231,17.3625664 33.8294569,17.0812261 33.9731694,16.852604 L33.9879436,16.8764464 Z" id="Stroke-1" fill="#FFFFFF"></path>
            </g>
        </g>
    </g>
</svg>