<?xml version="1.0" encoding="UTF-8"?>
<svg width="46px" height="46px" viewBox="0 0 46 46" version="1.1" xmlns="http://www.w3.org/2000/svg" xmlns:xlink="http://www.w3.org/1999/xlink">
    <!-- Generator: Sketch 51.2 (57519) - http://www.bohemiancoding.com/sketch -->
    <defs></defs>
    <g id="车享logol" stroke="none" stroke-width="1" fill="none" fill-rule="evenodd">
        <g id="Group-13">
            <g id="Group-21">
                <circle id="Oval-2" fill="#5F68FF" cx="23" cy="23" r="23"></circle>
                <g id="Group-9" transform="translate(5.000000, 13.000000)" fill="#FFFFFF">
                    <path d="M3.58718288,3.94108235 C3.58718288,3.94108235 14.7265914,-4.54758431 35.9342335,3.61112157 C35.9342335,3.61112157 23.8610661,1.4504549 17.2467315,3.61112157 C12.5521634,5.14508235 11.0827471,9.8489451 10.3502802,11.4365725 C9.82218677,12.5860824 9.50617121,12.415749 9.63518288,11.3948471 C10.0463113,8.21643529 11.7114163,5.47627843 11.1953696,4.21957255 C10.4224202,2.35455294 3.58718288,3.94108235 3.58718288,3.94108235 Z" id="Stroke-1"></path>
                    <path d="M2.03914086,13.8812059 C1.47602802,13.7516373 0.991638911,13.3851667 0.638502724,12.8078725 C0.119234241,11.9626569 -0.0555828794,10.7456176 0.160837354,9.47189216 C0.569864591,7.04989216 2.2075144,5.10663725 3.88144436,5.0477549 C4.66728093,5.01659804 5.35394241,5.41614706 5.81745992,6.16720588 C6.33784903,7.01242157 6.5116856,8.22822549 6.29414475,9.50304902 C6.07562335,10.7917353 5.48071284,12.0161863 4.66517977,12.8592059 C4.43559222,13.0917157 4.28248716,12.9824608 4.2039035,12.7723235 C4.13386459,12.5882647 4.41261946,12.2583039 4.62805914,11.9979314 C5.45661946,10.9899314 6.78609805,6.59461765 3.84964669,6.39312745 C2.68630039,6.44144118 1.45095409,7.94548039 1.15567004,9.68834314 C1.0049463,10.5645784 1.11196576,11.3787745 1.44423035,11.9218922 C1.72326537,12.3697549 2.12108638,12.5999314 2.60645603,12.5805784 C2.88310973,12.5700098 3.10835486,12.8656569 3.09742879,13.2362451 C3.08874397,13.6080686 2.85257276,13.9164804 2.57045603,13.9293824 C2.38681401,13.9369314 2.2075144,13.9164804 2.03914086,13.8812059 Z" id="Stroke-3"></path>
                    <path d="M19.258249,20.8046725 C18.3202879,20.5455353 17.5232451,19.9037314 16.9581712,18.9311431 C16.1272296,17.505202 15.8920389,15.5041627 16.3185759,13.447398 C17.1265447,9.53288824 19.9677432,6.50888824 22.7886304,6.55816275 C24.1102646,6.58163333 25.2406926,7.29302549 25.977642,8.55920196 C26.8085837,9.9883 27.0402724,11.9883784 26.6172374,14.0451431 C26.1876187,16.1286725 25.1314319,18.0730255 23.7145447,19.3724176 C23.3220467,19.7377902 23.0694864,19.5416529 22.9470584,19.1967314 C22.8355564,18.8872216 23.3254086,18.3718294 23.6959144,17.9691235 C25.1402568,16.3986529 27.5826537,9.34443725 22.6649416,8.75520196 C20.7101556,8.72953529 18.5630428,11.0702804 17.9758366,13.8897706 C17.6840545,15.3048686 17.8239922,16.6439275 18.3575486,17.5577706 C18.799214,18.3151431 19.4595409,18.7222412 20.2729728,18.737202 C20.7418132,18.7479078 21.0994319,19.2439471 21.0677743,19.852398 C21.0316342,20.454398 20.6205058,20.9417902 20.1504047,20.9310843 C19.8399922,20.9268294 19.5414864,20.8829078 19.258249,20.8046725 Z" id="Stroke-5"></path>
                    <path d="M5.88088716,18.1265824 C6.67470817,18.7221314 7.61056809,19.0542882 8.83821012,19.0938176 C10.0659922,19.1347196 11.1877354,18.8206804 12.0120934,18.2711118 C11.0958444,18.4982686 10.0091206,18.6086216 8.84801556,18.572249 C7.69027237,18.5368373 6.78607004,18.4104255 5.88088716,18.1265824 Z" id="Stroke-7"></path>
                </g>
            </g>
        </g>
    </g>
</svg>