<?xml version="1.0" encoding="UTF-8"?>
<svg width="46px" height="46px" viewBox="0 0 46 46" version="1.1" xmlns="http://www.w3.org/2000/svg" xmlns:xlink="http://www.w3.org/1999/xlink">
    <!-- Generator: Sketch 51.2 (57519) - http://www.bohemiancoding.com/sketch -->
    <defs></defs>
    <g id="大通logol" stroke="none" stroke-width="1" fill="none" fill-rule="evenodd">
        <g id="Group-13">
            <g id="Group-21" fill="#1EBF8E">
                <circle id="Oval-2" cx="23" cy="23" r="23"></circle>
            </g>
            <g id="Group-5" transform="translate(7.000000, 12.000000)" fill="#FFFFFF">
                <path d="M0.114204149,20.7325588 C2.45458589,17.4414608 4.96944066,14.3451275 7.42427884,11.169049 C7.54072697,11.2446765 7.64283485,11.3061667 7.74029544,11.3750686 C10.3632332,13.2333627 12.988561,15.0883627 15.6041959,16.9577745 C15.8481129,17.1320882 16.0009427,17.1182255 16.2375568,16.9495392 C18.9375071,15.0235784 21.646088,13.1107941 24.3991502,11.1615 C26.8772249,14.3423824 29.3539718,17.5216176 31.8748017,20.7575392 C31.0001793,20.8048922 30.1944697,20.8493627 29.3887602,20.8916373 C29.1886606,20.9020686 28.8770257,20.9092059 28.7214075,20.9238922 C27.8453245,21.0070686 27.5291751,20.8103824 26.996727,20.318049 C26.2101378,19.590598 25.3570257,18.9404216 24.5424199,18.2448137 C24.3826855,18.1086569 24.2485776,18.0972647 24.0620216,18.1602647 C21.4562124,19.0403431 18.8497394,19.9185 16.238088,20.780049 C16.036395,20.8466176 15.7781378,20.8420882 15.575117,20.7756569 C12.9604116,19.9202843 10.3498224,19.0511863 7.74215436,18.1727549 C7.51151535,18.0949314 7.36213776,18.1278725 7.17664398,18.2820098 C6.17999668,19.1100686 5.17219585,19.924402 4.16399668,20.7379118 C4.07304232,20.8112059 3.95115021,20.8919118 3.84532448,20.8894412 C2.67765643,20.8633627 1.51038672,20.8217745 0.342984232,20.7825196 C0.289473859,20.7807353 0.236760166,20.7600098 0.114204149,20.7325588 Z" id="Stroke-1"></path>
                <path d="M15.8543402,0.108733333 C16.6384066,1.12675294 17.398971,2.11334118 18.1586058,3.10075294 C19.7701577,5.19594902 21.3815768,7.29141961 22.9925975,9.38716471 C23.0475685,9.45881176 23.1058589,9.53018431 23.146888,9.61034118 C23.2249627,9.76351765 23.1750373,9.8589098 23.0049461,9.8589098 C21.9705892,9.85918431 20.9363651,9.85959608 19.9022739,9.84696863 C19.8036183,9.84573333 19.6997842,9.76461569 19.6089627,9.70381176 C18.4537759,8.92996863 17.2968631,8.15859608 16.1499087,7.37198824 C15.9356017,7.22512549 15.7837012,7.21043922 15.5606307,7.3638902 C14.4242988,8.14596863 13.2785394,8.91349804 12.1269378,9.67155686 C11.9698589,9.77477255 11.7631203,9.8434 11.5778921,9.84710588 C10.6773776,9.86481176 9.77633195,9.85767451 8.87541909,9.8519098 C8.76175934,9.85108627 8.64823237,9.80675294 8.53470539,9.78245882 C8.57440664,9.65659608 8.58556017,9.50822353 8.65872199,9.40857647 C9.04139419,8.8871451 9.43747718,8.37587059 9.83356017,7.86487059 C11.7932614,5.33636078 13.754556,2.80894902 15.7153195,0.281262745 C15.7498423,0.236929412 15.7856929,0.193694118 15.8543402,0.108733333 Z" id="Stroke-3"></path>
            </g>
        </g>
    </g>
</svg>