<?xml version="1.0" encoding="UTF-8"?>
<svg width="24px" height="18px" viewBox="0 0 24 18" version="1.1" xmlns="http://www.w3.org/2000/svg" xmlns:xlink="http://www.w3.org/1999/xlink">
    <!-- Generator: Sketch 51.2 (57519) - http://www.bohemiancoding.com/sketch -->
    <defs></defs>
    <g id="Symbols" stroke="none" stroke-width="1" fill-rule="evenodd">
        <g id="用户中心选中" transform="translate(-23.000000, -23.000000)" fill-rule="nonzero">
            <g id="Group-8">
                <g id="用户" transform="translate(23.000000, 20.000000)">
                    <rect id="Rectangle-path" fill="#000000" opacity="0" x="0" y="0" width="24" height="24"></rect>
                    <path d="M6.87123288,12.4273973 C7.4630137,12.4273973 8.05479452,12.2958904 8.61369863,12 C9.00821918,11.8027397 9.17260273,11.309589 8.97534246,10.8821918 C8.7780822,10.4876712 8.28493151,10.3232877 7.85753426,10.5205479 C7.56164384,10.6849315 7.23287672,10.7506849 6.87123288,10.7506849 C5.68767124,10.7506849 4.73424659,9.79726027 4.73424659,8.61369862 C4.73424659,7.43013698 5.68767124,6.47671233 6.87123288,6.47671233 C7.00273973,6.47671233 7.1671233,6.47671233 7.29863013,6.50958905 C7.4958904,6.54246577 7.69315069,6.50958905 7.85753426,6.41095891 C7.72602741,6.80547947 7.66027399,7.23287672 7.66027397,7.69315069 C7.66027397,10.1260274 9.63287672,12.0657534 12.0328767,12.0657534 C14.4328767,12.0657534 16.4383562,10.1260274 16.4383562,7.69315069 C16.4383562,7.2 16.339726,6.73972603 16.2082192,6.27945206 C16.4054794,6.47671233 16.6684931,6.54246577 16.9643836,6.50958905 C17.0958904,6.47671233 17.260274,6.47671233 17.3917808,6.47671233 C18.5753425,6.47671233 19.5287671,7.43013698 19.5287671,8.61369863 C19.5287671,9.79726027 18.5753425,10.7506849 17.3917808,10.7506849 C17.030137,10.7506849 16.7013699,10.6849315 16.4054794,10.5205479 C16.0109589,10.3232877 15.5178082,10.4876712 15.2876712,10.8821918 C15.090411,11.2767123 15.2547945,11.769863 15.6493151,12 C16.1753425,12.2630137 16.7671233,12.4273973 17.3917808,12.4273973 C19.4958904,12.4273973 21.1726027,10.7178082 21.1726027,8.64657534 C21.1726028,6.57534248 19.4630137,4.86575344 17.3917808,4.86575341 C17.1287671,4.86575341 16.8657534,4.89863013 16.6356164,4.93150685 C16.2410959,4.99726027 15.9780822,5.3589041 15.9780822,5.75342466 C15.2547945,4.33972603 13.7753425,3.35342466 12.0657534,3.35342466 C10.4547945,3.35342466 9.04109587,4.2410959 8.28493151,5.55616439 C8.21917809,5.26027397 7.98904109,5.03013698 7.66027397,4.96438357 C7.39726027,4.89863016 7.16712328,4.89863016 6.90410958,4.89863013 C4.8,4.89863013 3.12328767,6.60821918 3.12328767,8.67945206 C3.12328767,10.7506849 4.76712328,12.4273973 6.87123288,12.4273973 Z M12.0328767,4.96438357 C13.5452055,4.96438357 14.7616438,6.18082193 14.7616438,7.69315069 C14.7616438,9.20547945 13.5452055,10.4219178 12.0328767,10.4219178 C10.520548,10.4219178 9.3041096,9.20547945 9.30410958,7.69315069 C9.30410955,6.18082193 10.5205479,4.96438357 12.0328767,4.96438357 Z M17.3589041,12.4931507 C17.0958904,12.4931507 16.8328767,12.4931507 16.569863,12.5260274 C16.109589,12.5917808 15.8136986,12.9863014 15.8465753,13.4465753 C15.8465753,13.4794521 15.8465753,13.5123288 15.8794521,13.5452055 C14.7616438,12.8876712 13.4465753,12.4931507 12.0328767,12.4931507 C10.6849315,12.4931507 9.43561645,12.8547945 8.35068492,13.4465753 C8.41643834,12.9863014 8.08767122,12.5917808 7.62739725,12.5260274 C7.39726027,12.4931507 7.13424656,12.4931507 6.87123288,12.4931507 C3.28767124,12.4931507 0.394520555,15.3863014 0.394520555,18.9369863 C0.394520555,19.3972603 0.756164391,19.7589041 1.21643836,19.7589041 C1.67671233,19.7589041 2.03835616,19.3972603 2.03835616,18.9369863 C2.03835616,16.2739726 4.20821918,14.1041096 6.87123288,14.1041096 C7.03561645,14.1041096 7.1671233,14.1041096 7.33150685,14.1369863 C5.58904111,15.5178082 4.47123288,17.6547945 4.47123288,20.0547945 C4.47123288,20.5150685 4.83287672,20.8767123 5.29315069,20.8767123 C5.75342466,20.8767123 6.11506849,20.5150685 6.11506849,20.0547945 C6.11506849,16.7671233 8.7780822,14.1041096 12.0657534,14.1041096 C15.3534247,14.1041096 18.0164383,16.7671233 18.0164384,20.0547945 C18.0164384,20.5150685 18.3780822,20.8767123 18.8383562,20.8767123 C19.2986301,20.8767123 19.660274,20.5150685 19.660274,20.0547945 C19.660274,17.6547945 18.5424657,15.5178082 16.8,14.1369863 C16.9972603,14.1041096 17.1945206,14.1041096 17.3917808,14.1041096 C20.0547945,14.1041096 22.2246575,16.2739726 22.2246575,18.9369863 C22.2246575,19.3972603 22.5863014,19.7589041 23.0465753,19.7589041 C23.5068493,19.7589041 23.8684931,19.3972603 23.8684931,18.9369863 C23.8356164,15.3863014 20.9424657,12.4931507 17.3589041,12.4931507 Z"></path>
                </g>
            </g>
        </g>
    </g>
</svg>