<?xml version="1.0" encoding="UTF-8"?>
<svg width="22px" height="22px" viewBox="0 0 22 22" version="1.1" xmlns="http://www.w3.org/2000/svg" xmlns:xlink="http://www.w3.org/1999/xlink">
    <!-- Generator: Sketch 51.2 (57519) - http://www.bohemiancoding.com/sketch -->
    <defs></defs>
    <g id="Symbols" stroke="none" stroke-width="1" fill-rule="evenodd">
        <g id="活动中心未选中" transform="translate(-24.000000, -21.000000)" fill-rule="nonzero">
            <g id="Group-8">
                <g id="营销中心" transform="translate(23.000000, 20.000000)">
                    <rect id="Rectangle-path" fill="#000000" opacity="0" x="0" y="0" width="24" height="24"></rect>
                    <path d="M4.71528703,19.8243591 L6.01940285,19.8243591 C7.09811948,19.8243591 7.97558855,18.9481612 7.97558855,17.8681734 L7.97558855,12.6523577 C7.97558855,11.5736651 7.09811946,10.696172 6.01940285,10.696172 L4.71528703,10.696172 C3.63659438,10.696172 2.75910134,11.5736651 2.75910134,12.6523577 L2.75910134,17.8681974 C2.75910134,18.9481612 3.6365704,19.8243591 4.71528703,19.8243591 Z M4.06321713,12.6523577 C4.06321713,12.2932012 4.35613055,12.0002878 4.71528703,12.0002878 L6.01940285,12.0002878 C6.37855934,12.0002878 6.67147275,12.2932012 6.67147275,12.6523577 L6.67147275,17.8681974 C6.67147275,18.2273539 6.37855934,18.5202673 6.01940285,18.5202673 L4.71528703,18.5202673 C4.35615452,18.5202673 4.06321713,18.2273539 4.06321713,17.8681974 L4.06321713,12.6523577 Z M10.9658811,19.8243591 L12.269997,19.8243591 C13.3486896,19.8243591 14.2261826,18.9481612 14.2261826,17.8681734 L14.2261826,8.74001027 C14.2261826,7.66131762 13.3486896,6.78382458 12.269997,6.78382458 L10.9658811,6.78382458 C9.8871645,6.78382458 9.00969544,7.66131764 9.00969544,8.74001027 L9.00969544,17.8681974 C9.00969544,18.9481612 9.8871645,19.8243591 10.9658811,19.8243591 Z M10.3138112,8.74001027 C10.3138112,8.38087777 10.6067246,8.08794037 10.9658811,8.08794037 L12.269997,8.08794037 C12.6291295,8.08794037 12.9220669,8.38087777 12.9220669,8.74001027 L12.9220668,17.8681974 C12.9220668,18.2273539 12.6291294,18.5202673 12.2699969,18.5202673 L10.9658811,18.5202673 C10.6067246,18.5202673 10.3138112,18.2273539 10.3138112,17.8681974 L10.3138112,8.74001027 Z M17.2164512,19.8243591 L18.5205671,19.8243591 C19.5992837,19.8243591 20.4767527,18.9481612 20.4767527,17.8681734 L20.4767527,3.52354704 C20.4767527,2.44485438 19.5992837,1.56736134 18.5205671,1.56736134 L17.2164512,1.56736134 C16.1377586,1.56736134 15.2602655,2.44485441 15.2602655,3.52354704 L15.2602655,17.8681974 C15.2602655,18.9481612 16.1377586,19.8243591 17.2164512,19.8243591 Z M16.5643814,3.52354704 C16.5643814,3.16441453 16.8572948,2.87147714 17.2164513,2.87147714 L18.5205671,2.87147714 C18.8797236,2.87147714 19.172637,3.16441453 19.172637,3.52354704 L19.172637,17.8681974 C19.172637,18.2273539 18.8797235,18.5202673 18.5205671,18.5202673 L17.2164512,18.5202673 C16.8572947,18.5202673 16.5643813,18.2273539 16.5643813,17.8681974 L16.5643814,3.52354704 Z M21.7808446,21.1284749 L2.21910745,21.1284749 C1.85870381,21.1284749 1.56703755,21.4213883 1.56703755,21.7805448 C1.56703755,22.1422196 1.85867981,22.4326147 2.21910745,22.4326147 L21.7808446,22.4326147 C22.1412482,22.4326147 22.4329145,22.1422436 22.4329145,21.7805448 C22.4329145,21.4213883 22.1412722,21.1284749 21.7808446,21.1284749 Z"></path>
                </g>
            </g>
        </g>
    </g>
</svg>