<?xml version="1.0" encoding="UTF-8"?>
<svg width="12px" height="12px" viewBox="0 0 12 12" version="1.1" xmlns="http://www.w3.org/2000/svg" xmlns:xlink="http://www.w3.org/1999/xlink">
    <!-- Generator: Sketch 51.2 (57519) - http://www.bohemiancoding.com/sketch -->
    <defs></defs>
    <g id="Symbols" stroke="none" stroke-width="1" fill-rule="evenodd">
        <g id="jobname-–操作/用户群" transform="translate(-58.000000, -20.000000)">
            <g id="Group-114" transform="translate(56.000000, 18.000000)">
                <g id="barschart" transform="translate(2.000000, 2.000000)" fill-rule="nonzero">
                    <path d="M1.134375,0.5625 L1.134375,11.4375 C1.134375,11.7484375 0.8828125,12 0.571875,12 C0.2609375,12 0.009375,11.7484375 0.009375,11.4375 L0.009375,0.5625 C0.009375,0.2515625 0.2609375,0 0.571875,0 C0.8828125,0 1.134375,0.2515625 1.134375,0.5625 Z M0.571875,10.875 L11.415625,10.875 C11.7265625,10.875 11.978125,11.1265625 11.978125,11.4375 C11.978125,11.7484375 11.7265625,12 11.415625,12 L0.571875,12 C0.2609375,12 0.009375,11.7484375 0.009375,11.4375 C0.009375,11.1265625 0.2609375,10.875 0.571875,10.875 Z M4.121875,3.578125 L4.121875,9.375 C4.121875,9.6859375 3.8703125,9.9375 3.559375,9.9375 C3.2484375,9.9375 2.996875,9.6859375 2.996875,9.375 L2.996875,3.578125 C2.996875,3.2671875 3.2484375,3.015625 3.559375,3.015625 C3.8703125,3.015625 4.121875,3.2671875 4.121875,3.578125 Z M10.1140625,1.546875 L10.1140625,9.375 C10.1140625,9.6859375 9.8625,9.9375 9.5515625,9.9375 C9.240625,9.9375 8.9890625,9.6859375 8.9890625,9.375 L8.9890625,1.546875 C8.9890625,1.2359375 9.240625,0.984375 9.5515625,0.984375 C9.8625,0.984375 10.1140625,1.2359375 10.1140625,1.546875 Z M7.103125,5.546875 L7.103125,9.375 C7.103125,9.6859375 6.8515625,9.9375 6.540625,9.9375 C6.2296875,9.9375 5.978125,9.6859375 5.978125,9.375 L5.978125,5.546875 C5.978125,5.2359375 6.2296875,4.984375 6.540625,4.984375 C6.85,4.984375 7.103125,5.2359375 7.103125,5.546875 Z" id="Shape"></path>
                </g>
            </g>
        </g>
    </g>
</svg>