<?xml version="1.0" encoding="UTF-8"?>
<svg width="16px" height="16px" viewBox="0 0 16 16" version="1.1" xmlns="http://www.w3.org/2000/svg" xmlns:xlink="http://www.w3.org/1999/xlink">
    <!-- Generator: Sketch 51.2 (57519) - http://www.bohemiancoding.com/sketch -->
    <defs></defs>
    <g id="Symbols" stroke="none" stroke-width="1" fill-rule="evenodd">
        <g id="jobname-–操作/用户群" transform="translate(-92.000000, -18.000000)" fill-rule="nonzero">
            <g id="历史" transform="translate(92.000000, 18.000000)">
                <rect id="Rectangle-path" fill="#000000" opacity="0" x="0" y="0" width="16" height="16"></rect>
                <path d="M13.111,3.015 C11.7562451,1.65296297 9.91306306,0.889261253 7.992,0.894 C6.07054648,0.888770945 4.2268724,1.65252734 2.872,3.015 C1.50952734,4.3698724 0.745770945,6.21354648 0.751,8.135 C0.751,9.544 1.156,10.91 1.922,12.085 C2.07387831,12.317788 2.38571198,12.3833783 2.6185,12.2315 C2.85128802,12.0796217 2.91687831,11.767788 2.765,11.535 C2.1059821,10.5235886 1.75572583,9.3421686 1.757,8.135 C1.76140861,4.69459886 4.5495982,1.9068566 7.99,1.903 C11.427,1.903 14.222,4.699 14.222,8.135 C14.222,11.571 11.426,14.367 7.99,14.367 C6.85511627,14.3680094 5.74158448,14.0585029 4.77,13.472 C4.53256439,13.3355694 4.22963608,13.4136879 4.08778806,13.6479273 C3.94594005,13.8821668 4.01708031,14.1868094 4.248,14.334 C5.37667937,15.0156736 6.6704424,15.3753404 7.989,15.374 C9.90998467,15.3793378 11.7532699,14.6159534 13.108,13.254 C14.475,11.886 15.229,10.067 15.229,8.134 C15.229,6.201 14.479,4.383 13.111,3.015 Z M7.713,3.179 C7.54388369,3.17899979 7.38170852,3.24624935 7.26221906,3.36592639 C7.1427296,3.48560344 7.07573451,3.6478839 7.076,3.817 L7.076,8.403 C7.076,8.425 7.082,8.447 7.084,8.468 C7.12006861,8.79104733 7.39599393,9.03361903 7.721,9.028 L7.723,9.014 L11.34,9.014 C11.5737793,9.02326085 11.7938748,8.90382012 11.9135199,8.70276403 C12.033165,8.50170794 12.033165,8.25129206 11.9135199,8.05023597 C11.7938748,7.84917988 11.5737793,7.72973915 11.34,7.739 L8.351,7.739 L8.351,3.817 C8.351,3.46464233 8.06535767,3.179 7.713,3.179 Z" id="Shape"></path>
            </g>
        </g>
    </g>
</svg>