<?xml version="1.0" encoding="UTF-8"?>
<svg width="15px" height="14px" viewBox="0 0 15 14" version="1.1" xmlns="http://www.w3.org/2000/svg" xmlns:xlink="http://www.w3.org/1999/xlink">
    <!-- Generator: Sketch 51.2 (57519) - http://www.bohemiancoding.com/sketch -->
    <defs></defs>
    <g id="Symbols" stroke="none" stroke-width="1" fill-rule="evenodd">
        <g id="标签操作" transform="translate(-57.000000, -11.000000)">
            <g id="共享" transform="translate(56.000000, 10.000000)">
                <g id="Group-51">
                    <rect id="Rectangle-36" fill-opacity="0" fill="#FFFFFF" x="0" y="0" width="16" height="16"></rect>
                    <g id="sharealt" transform="translate(1.000000, 1.000000)" fill-rule="nonzero">
                        <path d="M11.71875,9.3609375 C10.9125,9.3609375 10.2,9.7765625 9.7859375,10.4046875 L6.09375,7.7859375 C6.1546875,7.54375 6.1875,7.2921875 6.1875,7.03125 C6.1875,6.615625 6.1046875,6.21875 5.9546875,5.85625 L9.975,3.83125 C10.4,4.31875 11.0234375,4.6265625 11.71875,4.6265625 C12.99375,4.6265625 14.03125,3.5890625 14.03125,2.3140625 C14.03125,1.0390625 12.99375,0.0015625 11.71875,0.0015625 C10.44375,0.0015625 9.40625,1.0390625 9.40625,2.3140625 C9.40625,2.490625 9.4265625,2.6625 9.4640625,2.828125 L5.340625,4.90625 C4.7765625,4.309375 3.978125,3.9375 3.09375,3.9375 C1.3875,3.9375 0,5.325 0,7.03125 C0,8.7375 1.3875,10.125 3.09375,10.125 C4.13125,10.125 5.0515625,9.6109375 5.6140625,8.825 L9.4125,11.51875 C9.409375,11.5703125 9.4078125,11.621875 9.4078125,11.675 C9.4078125,12.95 10.4453125,13.9875 11.7203125,13.9875 C12.9953125,13.9875 14.0328125,12.95 14.0328125,11.675 C14.0328125,10.4 12.99375,9.3609375 11.71875,9.3609375 Z M11.71875,1.1265625 C12.3734375,1.1265625 12.90625,1.659375 12.90625,2.3140625 C12.90625,2.96875 12.3734375,3.5015625 11.71875,3.5015625 C11.0640625,3.5015625 10.53125,2.96875 10.53125,2.3140625 C10.53125,1.659375 11.0640625,1.1265625 11.71875,1.1265625 Z M3.09375,9 C2.0078125,9 1.125,8.1171875 1.125,7.03125 C1.125,5.9453125 2.0078125,5.0625 3.09375,5.0625 C4.1796875,5.0625 5.0625,5.9453125 5.0625,7.03125 C5.0625,8.1171875 4.1796875,9 3.09375,9 Z M11.71875,12.8609375 C11.0640625,12.8609375 10.53125,12.328125 10.53125,11.6734375 C10.53125,11.01875 11.0640625,10.4859375 11.71875,10.4859375 C12.3734375,10.4859375 12.90625,11.01875 12.90625,11.6734375 C12.90625,12.328125 12.3734375,12.8609375 11.71875,12.8609375 Z" id="Shape"></path>
                    </g>
                </g>
            </g>
        </g>
    </g>
</svg>