<?xml version="1.0" encoding="UTF-8"?>
<svg width="16px" height="4px" viewBox="0 0 16 4" version="1.1" xmlns="http://www.w3.org/2000/svg" xmlns:xlink="http://www.w3.org/1999/xlink">
    <!-- Generator: Sketch 51.2 (57519) - http://www.bohemiancoding.com/sketch -->
    <title>更多</title>
    <desc>Created with Sketch.</desc>
    <defs></defs>
    <g id="Symbols" stroke="none" stroke-width="1" fill="none" fill-rule="evenodd">
        <g id="历史分析" transform="translate(0.000000, -6.000000)" fill-rule="nonzero">
            <g id="更多">
                <rect id="Rectangle-path" fill="#000000" opacity="0" x="0" y="0" width="16" height="16"></rect>
                <path d="M0.363636359,8 C0.363636354,8.38974428 0.571562451,8.74988286 0.909090902,8.944755 C1.24661935,9.13962715 1.66247155,9.13962715 2,8.944755 C2.33752846,8.74988286 2.54545455,8.38974428 2.54545455,8 C2.54545455,7.61025572 2.33752846,7.25011714 2,7.055245 C1.66247155,6.86037285 1.24661935,6.86037285 0.909090902,7.055245 C0.571562451,7.25011714 0.363636354,7.61025572 0.363636359,8 Z M6.90909091,8 C6.90909089,8.38974429 7.11701699,8.74988287 7.45454544,8.94475502 C7.7920739,9.13962716 8.2079261,9.13962716 8.54545456,8.94475502 C8.88298301,8.74988287 9.09090911,8.38974429 9.09090909,8 C9.09090911,7.61025571 8.88298301,7.25011713 8.54545456,7.05524498 C8.2079261,6.86037284 7.7920739,6.86037284 7.45454544,7.05524498 C7.11701699,7.25011713 6.90909089,7.61025571 6.90909091,8 Z M13.4545455,8 C13.4545455,8.60249246 13.9429621,9.09090909 14.5454545,9.09090909 C15.147947,9.09090909 15.6363636,8.60249246 15.6363636,8 C15.6363637,7.61025571 15.4284376,7.25011712 15.0909091,7.05524497 C14.7533807,6.86037282 14.3375284,6.86037282 14,7.05524497 C13.6624715,7.25011712 13.4545454,7.61025571 13.4545455,8 Z" id="Shape" fill="#1B87ED"></path>
            </g>
        </g>
    </g>
</svg>