<?xml version="1.0" encoding="UTF-8"?>
<svg width="10px" height="12px" viewBox="0 0 10 12" version="1.1" xmlns="http://www.w3.org/2000/svg" xmlns:xlink="http://www.w3.org/1999/xlink">
    <!-- Generator: Sketch 51.2 (57519) - http://www.bohemiancoding.com/sketch -->
    <defs></defs>
    <g id="活动管理" stroke="none" stroke-width="1" fill-rule="evenodd">
        <g id="活动列表" transform="translate(-1745.000000, -362.000000)">
            <g id="Group-3" transform="translate(1730.000000, 312.000000)">
                <g id="Group-102" transform="translate(14.000000, 50.000000)">
                    <g id="pptfile" transform="translate(1.500000, 0.000000)" fill-rule="nonzero">
                        <path d="M8.74921875,3.53671875 L5.49375,0.249609375 C5.44101562,0.196875 5.38359375,0.15234375 5.32148437,0.11484375 C5.30507812,0.10546875 5.28867187,0.09609375 5.27109375,0.087890625 C5.26054687,0.08203125 5.24882813,0.07734375 5.23828125,0.07265625 C5.1328125,0.02578125 5.01679688,8.8817842e-16 4.8984375,8.8817842e-16 L0.85546875,8.8817842e-16 C0.3890625,8.8817842e-16 0,0.37734375 0,0.84375 L0,11.15625 C0,11.6226563 0.3890625,12 0.85546875,12 L8.15625,12 C8.62265625,12 8.98828125,11.6226563 8.98828125,11.15625 L8.98828125,4.13085938 C8.98828125,3.90820313 8.90625,3.69492188 8.74921875,3.53671875 Z M5.33203125,1.29375 L7.68515625,3.65625 L5.33203125,3.65625 L5.33203125,1.29375 Z M8.14453125,11.15625 L0.84375,11.15625 L0.84375,0.84375 L4.48828125,0.84375 L4.48828125,3.65625 C4.48828125,4.12265625 4.87734375,4.5 5.34375,4.5 L8.14453125,4.5 L8.14453125,11.15625 Z M4.80703125,5.9296875 L3.48632812,5.9296875 L2.821875,9.84375 L3.7265625,9.84375 L3.946875,8.44921875 L4.3875,8.44921875 C5.18203125,8.44921875 5.94492188,8.05195313 6.103125,7.15664063 C6.26835937,6.22617188 5.63671875,5.9296875 4.80703125,5.9296875 Z M5.22304688,7.15664063 C5.15859375,7.52460938 4.91015625,7.734375 4.46953125,7.734375 L4.07578125,7.734375 L4.26679688,6.64453125 L4.6359375,6.64453125 C5.06953125,6.64453125 5.28984375,6.77695313 5.22304688,7.15664063 Z" id="Shape"></path>
                    </g>
                </g>
            </g>
        </g>
    </g>
</svg>