<?xml version="1.0" encoding="UTF-8"?>
<svg width="16px" height="16px" viewBox="0 0 16 16" version="1.1" xmlns="http://www.w3.org/2000/svg" xmlns:xlink="http://www.w3.org/1999/xlink">
    <!-- Generator: Sketch 51.2 (57519) - http://www.bohemiancoding.com/sketch -->
    <defs></defs>
    <g id="详情" stroke="none" stroke-width="1" fill-rule="evenodd">
        <g fill-rule="nonzero">
            <path d="M14.1034483,1 L2.89655172,1 C2.40139988,1 2,1.39175084 2,1.875 L2,14.125 C2,14.6082492 2.40139988,15 2.89655172,15 L14.1034483,15 C14.5986001,15 15,14.6082492 15,14.125 L15,1.875 C15,1.39175084 14.5986001,1 14.1034483,1 Z M14.1034483,14.125 L2.89655172,14.125 L2.89655172,1.875 L14.1034483,1.875 L14.1034483,14.125 Z" id="Shape" stroke-width="0.2"></path>
            <path d="M5.41791045,4.77220077 L11.5820896,4.77220077 C11.8128951,4.77220077 12,4.59933774 12,4.38610039 C12,4.17286303 11.8128951,4 11.5820896,4 L5.41791045,4 C5.18710488,4 5,4.17286303 5,4.38610039 C5,4.59933774 5.18710488,4.77220077 5.41791045,4.77220077 Z M5.41791045,7.60617761 L10.7546269,7.60617761 C10.9854324,7.60617761 11.1725373,7.43331458 11.1725373,7.22007722 C11.1725373,7.00683986 10.9854324,6.83397683 10.7546269,6.83397683 L5.41791045,6.83397683 C5.18710488,6.83397683 5,7.00683986 5,7.22007722 C5,7.43331458 5.18710488,7.60617761 5.41791045,7.60617761 Z M5.41791045,10 L10.3367164,10 C10.567522,10 10.7546269,9.82713697 10.7546269,9.61389961 C10.7546269,9.40066226 10.567522,9.22779923 10.3367164,9.22779923 L5.41791045,9.22779923 C5.18710488,9.22779923 5,9.40066226 5,9.61389961 C5,9.82713697 5.18710488,10 5.41791045,10 Z" id="Shape" stroke-width="0.2"></path>
        </g>
    </g>
</svg>