<?xml version="1.0" encoding="UTF-8"?>
<svg width="14px" height="14px" viewBox="0 0 14 14" version="1.1" xmlns="http://www.w3.org/2000/svg" xmlns:xlink="http://www.w3.org/1999/xlink">
    <!-- Generator: Sketch 51.2 (57519) - http://www.bohemiancoding.com/sketch -->
    <title>历史</title>
    <desc>Created with Sketch.</desc>
    <defs></defs>
    <g id="Symbols" stroke="none" stroke-width="1" fill-rule="evenodd">
        <g id="活动数据" transform="translate(-1.000000, -1.000000)">
            <g id="历史">
                <g id="Group-187">
                    <g id="dotchart" transform="translate(1.000000, 0.984375)">
                        <path d="M13.4375,12.890625 L1.125,12.890625 L1.125,0.5625 C1.125,0.2515625 0.8734375,0 0.5625,0 C0.2515625,0 0,0.2515625 0,0.5625 L0,13.453125 C0,13.7640625 0.2515625,14.015625 0.5625,14.015625 L13.4375,14.015625 C13.7484375,14.015625 14,13.7640625 14,13.453125 C14,13.1421875 13.7484375,12.890625 13.4375,12.890625 Z M2.965625,8.965625 C2.965625,9.53516865 3.42733135,9.996875 3.996875,9.996875 C4.56641865,9.996875 5.028125,9.53516865 5.028125,8.965625 C5.028125,8.39608135 4.56641865,7.934375 3.996875,7.934375 C3.42733135,7.934375 2.965625,8.39608135 2.965625,8.965625 Z M7.015625,8.34375 C7.015625,9.08156791 7.61374459,9.6796875 8.3515625,9.6796875 C9.08938041,9.6796875 9.6875,9.08156791 9.6875,8.34375 C9.6875,7.60593209 9.08938041,7.0078125 8.3515625,7.0078125 C7.61374459,7.0078125 7.015625,7.60593209 7.015625,8.34375 Z M7.815625,4.98125 C7.815625,5.49815401 8.23465849,5.9171875 8.7515625,5.9171875 C9.26846651,5.9171875 9.6875,5.49815401 9.6875,4.98125 C9.6875,4.46434599 9.26846651,4.0453125 8.7515625,4.0453125 C8.23465849,4.0453125 7.815625,4.46434599 7.815625,4.98125 Z M11.5890625,2.74375 C11.5890625,3.13638994 11.9073601,3.4546875 12.3,3.4546875 C12.6926399,3.4546875 13.0109375,3.13638994 13.0109375,2.74375 C13.0109375,2.35111006 12.6926399,2.0328125 12.3,2.0328125 C11.9073601,2.0328125 11.5890625,2.35111006 11.5890625,2.74375 Z M11.9765625,5.7328125 C11.9765625,6.02017316 12.2095143,6.253125 12.496875,6.253125 C12.7842357,6.253125 13.0171875,6.02017316 13.0171875,5.7328125 C13.0171875,5.44545184 12.7842357,5.2125 12.496875,5.2125 C12.2095143,5.2125 11.9765625,5.44545184 11.9765625,5.7328125 Z" id="Shape"></path>
                    </g>
                </g>
            </g>
        </g>
    </g>
</svg>