<?xml version="1.0" encoding="UTF-8"?>
<svg width="14px" height="14px" viewBox="0 0 14 14" version="1.1" xmlns="http://www.w3.org/2000/svg" xmlns:xlink="http://www.w3.org/1999/xlink">
    <!-- Generator: Sketch 51.2 (57519) - http://www.bohemiancoding.com/sketch -->
    <defs></defs>
    <g id="Symbols" stroke="none" stroke-width="1" fill-rule="evenodd">
        <g id="标签操作" transform="translate(-21.000000, -11.000000)">
            <g id="编辑" transform="translate(20.000000, 10.000000)">
                <g id="Group-52">
                    <g id="edit" transform="translate(1.000000, 1.000000)" fill-rule="nonzero">
                        <path d="M13.4375,12.8602446 L0.5625,12.8602446 C0.2515625,12.8602446 0,13.1115263 0,13.4221168 C0,13.7327072 0.2515625,13.983989 0.5625,13.983989 L13.4375,13.983989 C13.7484375,13.983989 14,13.7327072 14,13.4221168 C14,13.1115263 13.7484375,12.8602446 13.4375,12.8602446 Z M3.625,11.0185523 L7.3046875,9.46247844 C7.3640625,9.43750635 7.4171875,9.40160895 7.4640625,9.35634703 L13.6703125,3.15702364 C14.109375,2.71845117 14.1125,2.00362486 13.6734375,1.56505238 L12.434375,0.327372766 C11.9953125,-0.111199709 11.2796875,-0.108078197 10.840625,0.330494278 L4.634375,6.52981766 C4.5890625,6.57507959 4.553125,6.62970605 4.528125,6.68901479 L2.96875,10.3630347 C2.88125,10.5690545 2.9421875,10.7766351 3.075,10.9108601 C3.2078125,11.0450852 3.4171875,11.1059547 3.625,11.0185523 Z M11.6359375,1.12491915 L11.6390625,1.12179764 L12.8765625,2.3579165 L12.8734375,2.36103801 L11.9046875,3.32870682 L10.6671875,2.09258796 L11.6359375,1.12491915 Z M5.515625,7.23840095 L9.871875,2.88701283 L11.109375,4.12313169 L6.753125,8.47451981 L4.60625,9.38287988 L5.515625,7.23840095 Z" id="Shape"></path>
                    </g>
                </g>
            </g>
        </g>
    </g>
</svg>