<?xml version="1.0" encoding="UTF-8"?>
<svg width="14px" height="14px" viewBox="0 0 14 14" version="1.1" xmlns="http://www.w3.org/2000/svg" xmlns:xlink="http://www.w3.org/1999/xlink">
    <!-- Generator: Sketch 51.2 (57519) - http://www.bohemiancoding.com/sketch -->
    <defs></defs>
    <g id="Symbols" stroke="none" stroke-width="1" fill-rule="evenodd">
        <g id="画像操作-详情" transform="translate(-57.000000, -11.000000)">
            <g id="群体画像分析" transform="translate(56.000000, 10.000000)">
                <g id="画像分析">
                    <rect id="Rectangle-path" fill-rule="nonzero" opacity="0" x="0" y="0" width="16" height="16"></rect>
                    <path d="M6.9546875,8.540625 C6.225,8.096875 5.8046875,7.471875 5.778125,6.6125 C5.7609375,6.0109375 5.9640625,5.4875 6.3796875,5.053125 C7.290625,4.0984375 8.7421875,4.125 9.6328125,5.0875 C10.5765625,6.1078125 10.3171875,7.8796875 9.0234375,8.5421875 C9.0859375,8.5703125 9.14375,8.5953125 9.2,8.61875 C10.0921875,9.0015625 10.7078125,9.65 11.03125,10.5671875 C11.1046875,10.7765625 11.1359375,11 11.18125,11.2171875 C11.1890625,11.2546875 11.184375,11.296875 11.175,11.3359375 C11.1515625,11.43125 11.084375,11.4796875 10.9921875,11.4765625 C10.8953125,11.4734375 10.825,11.4140625 10.8046875,11.3203125 C10.7671875,11.14375 10.746875,10.9609375 10.690625,10.790625 C10.328125,9.709375 9.6,9.0265625 8.471875,8.825 C7.5046875,8.6515625 6.6640625,8.9328125 5.9671875,9.6296875 C5.515625,10.08125 5.2625,10.6328125 5.178125,11.265625 C5.1625,11.384375 5.1140625,11.453125 5.0265625,11.475 C4.89375,11.5078125 4.7796875,11.40625 4.7921875,11.265625 C4.840625,10.759375 5.003125,10.2921875 5.2796875,9.8671875 C5.653125,9.290625 6.1609375,8.871875 6.7953125,8.6109375 C6.8359375,8.59375 6.8765625,8.575 6.9171875,8.5578125 C6.9265625,8.5546875 6.934375,8.5515625 6.9546875,8.540625 Z M7.9890625,8.3953125 C8.9890625,8.3953125 9.79375,7.5890625 9.809375,6.609375 C9.8265625,5.5421875 8.9796875,4.76875 8.0359375,4.74375 C7.0484375,4.71875 6.184375,5.50625 6.16875,6.540625 C6.153125,7.5546875 6.9625,8.3953125 7.9890625,8.3953125 Z" id="Shape" stroke-width="0.5" fill-rule="nonzero"></path>
                    <path d="M2.9359375,4.996875 L2.4953125,4.73125 C3.6671875,2.784375 5.721875,1.6234375 7.990625,1.6234375 C9.0359375,1.6234375 10.075,1.88125 10.9921875,2.36875 L10.7515625,2.8234375 C9.9078125,2.375 8.953125,2.1390625 7.990625,2.1390625 C5.903125,2.1375 4.0140625,3.2078125 2.9359375,4.996875 Z M7.990625,14.4453125 C4.45625,14.4453125 1.5796875,11.5703125 1.5796875,8.034375 L2.09375,8.034375 C2.09375,11.2859375 4.7390625,13.93125 7.990625,13.93125 L7.990625,14.4453125 Z M11.165625,13.60625 L10.9109375,13.159375 C12.746875,12.1109375 13.8890625,10.146875 13.8890625,8.034375 C13.8890625,6.9515625 13.5921875,5.8921875 13.0328125,4.971875 L13.471875,4.7046875 C14.08125,5.7046875 14.403125,6.85625 14.403125,8.034375 C14.4015625,10.33125 13.1609375,12.465625 11.165625,13.60625 Z M12.3640625,4.3796875 C11.9546875,4.3796875 11.621875,4.046875 11.621875,3.6375 C11.621875,3.228125 11.9546875,2.8953125 12.3640625,2.8953125 C12.7734375,2.8953125 13.10625,3.228125 13.10625,3.6375 C13.10625,4.046875 12.7734375,4.3796875 12.3640625,4.3796875 Z M12.3640625,3.18125 C12.1125,3.18125 11.9078125,3.3859375 11.9078125,3.6375 C11.9078125,3.8890625 12.1125,4.09375 12.3640625,4.09375 C12.615625,4.09375 12.8203125,3.8890625 12.8203125,3.6375 C12.8203125,3.3859375 12.615625,3.18125 12.3640625,3.18125 Z M9.6546875,14.6515625 C9.2453125,14.6515625 8.9125,14.31875 8.9125,13.909375 C8.9125,13.5 9.2453125,13.1671875 9.6546875,13.1671875 C10.0640625,13.1671875 10.396875,13.5 10.396875,13.909375 C10.3984375,14.3171875 10.0640625,14.6515625 9.6546875,14.6515625 Z M9.6546875,13.4515625 C9.403125,13.4515625 9.1984375,13.65625 9.1984375,13.9078125 C9.1984375,14.159375 9.403125,14.3640625 9.6546875,14.3640625 C9.90625,14.3640625 10.1109375,14.159375 10.1109375,13.9078125 C10.1109375,13.65625 9.9078125,13.4515625 9.6546875,13.4515625 Z M2.115625,7.1015625 C1.70625,7.1015625 1.3734375,6.76875 1.3734375,6.359375 C1.3734375,5.95 1.70625,5.6171875 2.115625,5.6171875 C2.525,5.6171875 2.8578125,5.95 2.8578125,6.359375 C2.8578125,6.7671875 2.525,7.1015625 2.115625,7.1015625 Z M2.115625,5.9015625 C1.8640625,5.9015625 1.659375,6.10625 1.659375,6.3578125 C1.659375,6.609375 1.8640625,6.8140625 2.115625,6.8140625 C2.3671875,6.8140625 2.571875,6.609375 2.571875,6.3578125 C2.571875,6.10625 2.3671875,5.9015625 2.115625,5.9015625 Z" id="Shape" stroke-width="0.5" fill-rule="nonzero"></path>
                </g>
            </g>
        </g>
    </g>
</svg>