<?xml version="1.0" encoding="UTF-8"?>
<svg width="46px" height="46px" viewBox="0 0 46 46" version="1.1" xmlns="http://www.w3.org/2000/svg" xmlns:xlink="http://www.w3.org/1999/xlink">
    <!-- Generator: Sketch 51.2 (57519) - http://www.bohemiancoding.com/sketch -->
    <defs></defs>
    <g id="上汽集团logol" stroke="none" stroke-width="1" fill="none" fill-rule="evenodd">
        <g id="Group-13">
            <g id="Group-21">
                <circle id="Oval-2" fill="#7A42F8" cx="23" cy="23" r="23"></circle>
                <g id="Group-5" transform="translate(8.000000, 8.000000)">
                    <path d="M26.2152175,18.2029183 C25.3005193,18.307368 24.3419819,18.3186225 23.4385397,18.1636263 C21.9594616,17.9095115 21.115459,16.8263152 21.1057828,15.4374703 C21.0957116,13.9822832 21.8968625,13.0110395 23.4298509,12.65287 C24.43203,12.4188949 25.4428979,12.4283723 26.4357957,12.6951237 C27.255904,12.9156725 27.871627,13.407119 28.2482094,14.3084662 C27.5892396,14.4180495 26.9950412,14.5276328 26.3966959,14.6052296 C26.294602,14.6186561 26.1443245,14.5205247 26.0680996,14.4300938 C25.6322752,13.9127817 24.968961,13.7317225 24.2983403,13.9678695 C23.7568673,14.1586037 23.4843536,14.5878543 23.458682,15.2907669 C23.4097086,16.6274857 24.1579364,17.280839 25.3777315,16.8656072 C25.7667548,16.7333175 26.0513144,16.2947868 26.4713409,15.9176624 C26.9644328,16.0337614 27.6109617,16.1859933 28.2537386,16.3370406 C28.1332797,17.2302925 27.2965836,18.0795137 26.2152175,18.2029183 Z M17.5145259,18.2084468 L19.7767847,18.2084468 L19.7767847,12.6204886 L17.5145259,12.6204886 L17.5145259,18.2084468 Z M14.3539592,18.2505031 L13.9886328,17.313023 L11.5034262,17.3256596 L11.1615992,18.2505031 C11.1615992,18.2505031 9.36676069,18.245172 8.67678755,18.245172 C8.89400863,17.7957818 9.07173496,17.423396 9.25341078,17.0529848 C9.92482139,15.6854642 11.5052035,12.5885022 11.5052035,12.5885022 L14.0044307,12.6206861 L16.7380593,18.204103 L14.3539592,18.2505031 Z M7.84799039,17.5071137 C7.41710276,17.8508696 6.84995826,18.1411173 6.31322472,18.2084468 C5.42834503,18.3196097 4.57506113,18.3508064 3.62047322,18.2080519 C2.49072613,18.0392344 1.872041,17.337309 1.70023888,16.3165061 C2.37698128,16.3165061 3.20439612,16.3062388 3.86810526,16.3005128 C3.86810526,16.3005128 3.90444042,16.3901539 3.95933811,16.4959857 C4.28339247,17.1199194 5.22573701,17.3953585 5.81282634,17.0044127 C5.9386171,16.9204976 6.08257543,16.7990674 6.07052953,16.6118873 C6.05848364,16.4249047 5.92992825,16.3388176 5.72238338,16.2225211 C5.51483852,16.1064221 4.90740939,15.9553748 4.41115796,15.8989049 C3.91470905,15.8424349 3.35842561,15.6193194 2.85644744,15.4181205 C2.33906633,15.2108008 1.96110165,14.836638 1.94234164,14.2308694 C1.92318669,13.6128591 2.25829958,13.172354 2.78831901,12.9431176 C4.2403432,12.3150375 5.72593791,12.3093116 7.19158778,12.892966 C7.7427369,13.11233 8.10905063,13.7767405 8.13235253,14.3291982 C7.4220396,14.3291982 6.35370683,14.3214978 6.04308069,14.3214978 C5.72534549,13.6600491 4.95559297,13.5048554 4.45558954,13.6801887 C4.32920637,13.7246144 4.17359708,13.872305 4.16155119,13.9864296 C4.15187498,14.0772554 4.324467,14.2527861 4.44275375,14.281416 C5.15267173,14.4531952 5.87522804,14.5748228 6.58356623,14.7523279 C6.94198101,14.8421665 7.30355537,14.9724818 7.62227794,15.1563053 C8.54033321,15.6858591 8.67737997,16.8454676 7.84799039,17.5071137 Z M28.4782663,12.5885022 C28.2567008,12.5184083 28.0280262,12.4629256 27.7985617,12.4263979 C24.4912721,11.9000031 21.1794405,11.4008562 17.8774826,10.8438571 C16.515309,10.6138309 15.1515555,10.4396824 13.7872097,10.6333782 C10.5350151,11.0952076 7.2921019,11.6214049 4.0450417,12.120157 C3.43761257,12.2135496 2.8289986,12.2998341 2.17457073,12.3961884 C2.20735136,12.2066389 2.21979221,12.1008071 2.24447642,11.997937 C2.86335902,9.42973903 4.13726192,7.24458892 6.04801753,5.41820069 C10.1969402,1.45227269 16.9625869,0.757652822 21.8139235,3.80367349 C24.739299,5.64032899 26.6938938,8.55188799 27.6668468,11.8622907 C27.6668468,11.8622907 29.0602213,11.866832 29.6838432,11.866832 C29.6218365,11.6172585 29.5730605,11.4079643 29.5175704,11.2006445 C27.1457137,2.33288799 17.5656716,-2.36714935 9.13058213,1.19835537 C2.66963732,3.92944747 -1.00910041,10.7751454 0.243080377,17.7361527 C0.383089237,18.5138979 0.68561896,18.8021711 1.48203043,18.8580487 C1.88507427,18.8864811 2.29187011,18.8612078 2.69688869,18.8614053 C10.8065415,18.8629849 18.9161943,18.8647619 27.0256496,18.8675262 C27.1709903,18.8675262 27.3161335,18.8823347 27.4930699,18.8920096 C27.4535752,19.0395028 27.4350126,19.1293414 27.4057865,19.2156259 C26.8726075,20.7991538 26.0489447,22.2144566 24.9752801,23.494508 C20.267112,29.107542 11.5362069,29.6625666 6.16136744,24.6829437 C4.67478536,23.3057483 3.50633342,21.2544675 2.75178638,19.3702272 C2.75178638,19.3702272 1.27902746,19.3633165 0.667451378,19.3633165 C0.721954122,19.5662924 0.755722126,19.731161 0.809829923,19.8889214 C4.14358108,29.6066889 16.1853304,33.172786 24.2450224,26.7910894 C28.1632957,23.6887962 30.0543039,19.5674771 29.9988138,14.570084 C29.9855831,13.3782917 29.6214416,12.9500283 28.4782663,12.5885022 Z" id="Stroke-1" fill="#FFFFFF"></path>
                    <path d="M12,16.4 L13.6,16.4 C13.3265754,15.7278636 13.0802548,15.1228556 12.7860144,14.4 C12.4935086,15.1443793 12.2523919,15.7579116 12,16.4 Z" id="Stroke-3" fill="#FCFCFF"></path>
                </g>
            </g>
        </g>
    </g>
</svg>