<?xml version="1.0" encoding="UTF-8"?>
<svg width="16px" height="14px" viewBox="0 0 16 14" version="1.1" xmlns="http://www.w3.org/2000/svg" xmlns:xlink="http://www.w3.org/1999/xlink">
    <!-- Generator: Sketch 51.2 (57519) - http://www.bohemiancoding.com/sketch -->
    <defs></defs>
    <g id="页面确认" stroke="none" stroke-width="1" fill="none" fill-rule="evenodd" opacity="0.65">
        <g id="首页2" transform="translate(-318.000000, -642.000000)">
            <g id="Group-29" transform="translate(110.000000, 266.000000)">
                <g id="Group-3" transform="translate(110.000000, 327.000000)">
                    <g id="Group-122" transform="translate(98.000000, 48.000000)">
                        <rect id="Rectangle-43-Copy-9" x="0" y="0" width="16" height="16"></rect>
                        <g id="solution" transform="translate(0.984375, 1.000000)" fill="#F1F2F3" fill-rule="nonzero" opacity="0.45">
                            <path d="M13.996875,13.325 C13.8,12.284375 13.0828125,11.4515625 12.146875,11.0734375 C12.703125,10.703125 13.0703125,10.071875 13.0703125,9.3546875 C13.0703125,8.2171875 12.1453125,7.2921875 11.0078125,7.2921875 C9.8703125,7.2921875 8.9453125,8.2171875 8.9453125,9.3546875 C8.9453125,10.0703125 9.3125,10.703125 9.86875,11.0734375 C8.9328125,11.4515625 8.215625,12.2859375 8.01875,13.325 C7.9609375,13.6296875 8.1609375,13.925 8.4671875,13.9828125 C8.771875,14.040625 9.0671875,13.840625 9.125,13.534375 C9.296875,12.63125 10.0890625,11.9765625 11.009375,11.9765625 C11.9296875,11.9765625 12.7234375,12.63125 12.89375,13.534375 C12.9453125,13.8046875 13.18125,13.9921875 13.4453125,13.9921875 C13.4796875,13.9921875 13.515625,13.9890625 13.55,13.9828125 C13.8546875,13.9234375 14.0546875,13.6296875 13.996875,13.325 Z M11.0078125,8.4171875 C11.525,8.4171875 11.9453125,8.8375 11.9453125,9.3546875 C11.9453125,9.871875 11.525,10.2921875 11.0078125,10.2921875 C10.490625,10.2921875 10.0703125,9.871875 10.0703125,9.3546875 C10.0703125,8.8375 10.490625,8.4171875 11.0078125,8.4171875 Z" id="Shape"></path>
                            <path d="M12.8984375,0 L1.1328125,0 C0.5125,0 0.0078125,0.5046875 0.0078125,1.125 L0.0078125,12.875 C0.0078125,13.4953125 0.5125,14 1.1328125,14 L5.4609375,14 C5.771875,14 6.0234375,13.7484375 6.0234375,13.4375 C6.0234375,13.1265625 5.771875,12.875 5.4609375,12.875 L1.1328125,12.875 L1.1328125,1.125 L12.8984375,1.125 L12.8984375,6.4375 C12.8984375,6.7484375 13.15,7 13.4609375,7 C13.771875,7 14.0234375,6.7484375 14.0234375,6.4375 L14.0234375,1.125 C14.0234375,0.5046875 13.51875,0 12.8984375,0 Z" id="Shape"></path>
                            <path d="M2.5859375,4.125 L7.4609375,4.125 C7.771875,4.125 8.0234375,3.8734375 8.0234375,3.5625 C8.0234375,3.2515625 7.771875,3 7.4609375,3 L2.5859375,3 C2.275,3 2.0234375,3.2515625 2.0234375,3.5625 C2.0234375,3.8734375 2.275,4.125 2.5859375,4.125 Z M5.4609375,6 L2.5859375,6 C2.275,6 2.0234375,6.2515625 2.0234375,6.5625 C2.0234375,6.8734375 2.275,7.125 2.5859375,7.125 L5.4609375,7.125 C5.771875,7.125 6.0234375,6.8734375 6.0234375,6.5625 C6.0234375,6.2515625 5.771875,6 5.4609375,6 Z M5.4609375,9 L2.5859375,9 C2.275,9 2.0234375,9.2515625 2.0234375,9.5625 C2.0234375,9.8734375 2.275,10.125 2.5859375,10.125 L5.4609375,10.125 C5.771875,10.125 6.0234375,9.8734375 6.0234375,9.5625 C6.0234375,9.2515625 5.771875,9 5.4609375,9 Z" id="Shape"></path>
                        </g>
                    </g>
                </g>
            </g>
        </g>
    </g>
</svg>