<?xml version="1.0" encoding="UTF-8"?>
<svg width="14px" height="12px" viewBox="0 0 14 12" version="1.1" xmlns="http://www.w3.org/2000/svg" xmlns:xlink="http://www.w3.org/1999/xlink">
    <!-- Generator: Sketch 51.2 (57519) - http://www.bohemiancoding.com/sketch -->
    <defs></defs>
    <g id="页面确认" stroke="none" stroke-width="1" fill="none" fill-rule="evenodd" opacity="0.65">
        <g id="首页2" transform="translate(-386.000000, -643.000000)">
            <g id="Group-29" transform="translate(110.000000, 266.000000)">
                <g id="Group-3" transform="translate(110.000000, 327.000000)">
                    <g id="Group-20" transform="translate(165.000000, 48.000000)">
                        <g id="tagso" transform="translate(1.500000, 2.640625)" fill="#F1F2F3" fill-rule="nonzero" opacity="0.45">
                            <path d="M2.8765625,1.7140625 C2.159375,1.7140625 1.5765625,2.296875 1.5765625,3.0140625 C1.5765625,3.73125 2.159375,4.3140625 2.8765625,4.3140625 C3.5921875,4.3140625 4.175,3.7296875 4.175,3.0125 C4.175,2.296875 3.5921875,1.7140625 2.8765625,1.7140625 Z M2.8765625,3.3265625 C2.7046875,3.3265625 2.5640625,3.1859375 2.5640625,3.0140625 C2.5640625,2.8421875 2.7046875,2.7015625 2.8765625,2.7015625 C3.0484375,2.7015625 3.1890625,2.8421875 3.1890625,3.0140625 C3.1890625,3.1859375 3.0484375,3.3265625 2.8765625,3.3265625 Z M12.7109375,5.859375 L7.1015625,0.196875 C6.9765625,0.0703125 6.809375,4.4408921e-16 6.6296875,4.4408921e-16 L0.96875,0 C0.434375,0 0,0.4296875 0,0.959375 L0,4.453125 C0,4.628125 0.06875,4.7921875 0.19375,4.9171875 L5.796875,10.453125 C5.98125,10.6328125 6.2234375,10.7328125 6.48125,10.7328125 C6.7390625,10.7328125 6.98125,10.634375 7.165625,10.453125 L7.6078125,10.015625 L8.05,10.453125 C8.234375,10.6328125 8.4765625,10.7328125 8.734375,10.7328125 C8.9921875,10.7328125 9.234375,10.6328125 9.41875,10.453125 L12.703125,7.2078125 C13.078125,6.8390625 13.08125,6.234375 12.7109375,5.859375 Z M10.45,7.2078125 C10.6328125,7.0296875 10.7328125,6.790625 10.734375,6.5359375 C10.7359375,6.28125 10.6375,6.040625 10.4578125,5.859375 L5.63125,0.9859375 L6.4953125,0.9859375 L11.984375,6.5296875 L8.734375,9.740625 L8.309375,9.321875 L10.45,7.2078125 Z M0.9875,4.3125 L0.9875,0.9859375 L4.2421875,0.9859375 L9.7296875,6.5265625 L7.540625,8.690625 L6.9734375,9.2546875 L6.48125,9.740625 L0.9875,4.3125 Z" id="Shape"></path>
                        </g>
                        <rect id="Rectangle-23" x="0" y="0" width="16" height="16"></rect>
                    </g>
                </g>
            </g>
        </g>
    </g>
</svg>