<?xml version="1.0" encoding="UTF-8"?>
<svg width="14px" height="12px" viewBox="0 0 14 12" version="1.1" xmlns="http://www.w3.org/2000/svg" xmlns:xlink="http://www.w3.org/1999/xlink">
    <!-- Generator: Sketch 51.2 (57519) - http://www.bohemiancoding.com/sketch -->
    <defs></defs>
    <g id="页面确认" stroke="none" stroke-width="1" fill="none" fill-rule="evenodd">
        <g id="首页2" transform="translate(-241.000000, -643.000000)" fill-rule="nonzero">
            <g id="Group-29" transform="translate(110.000000, 266.000000)">
                <g id="Group-3" transform="translate(110.000000, 327.000000)">
                    <g id="Group" transform="translate(20.000000, 48.000000)">
                        <rect id="Rectangle-path" fill="#000000" opacity="0" x="0" y="0" width="16" height="16"></rect>
                        <path d="M4.62345312,8.22015625 C3.98845312,7.70439063 3.58220312,6.91421875 3.58220312,6.0284375 C3.58220312,4.47445313 4.83257812,3.2146875 6.375,3.2146875 C7.91742187,3.2146875 9.16778125,4.47445313 9.16778125,6.0284375 C9.16778125,6.91421875 8.76154687,7.70439063 8.12653125,8.22015625 C9.81242187,8.9156875 11,10.5851719 11,12.534125 C11,12.722125 10.9889531,12.9075313 10.9674687,13.0897031 L9.96221875,13.0897031 C9.98999265,12.9058147 10.0039068,12.720099 10.0038437,12.534125 C10.0038437,10.5149219 8.37915625,8.87803125 6.375,8.87803125 C4.37084375,8.87803125 2.74615625,10.5149219 2.74615625,12.534125 C2.74615625,12.723 2.760375,12.9085312 2.78778125,13.0897031 L1.78253125,13.0897031 C1.76082185,12.9053068 1.74995941,12.7197948 1.75,12.534125 C1.75,10.5851719 2.93759375,8.9156875 4.62345312,8.22015625 Z M6.375,7.8385625 C7.36725,7.8385625 8.17164062,7.02815625 8.17164062,6.02845313 C8.17164062,5.02875 7.36726562,4.21832813 6.375,4.21832813 C5.38275,4.21832813 4.57835937,5.02875 4.57835937,6.02845313 C4.57835937,7.02814063 5.38273437,7.8385625 6.375,7.8385625 Z M9.62123437,2.921875 C11.1626719,2.921875 12.4122656,4.181875 12.4122656,5.7361875 C12.4122656,6.622125 12.0062812,7.41245313 11.3716719,7.92832813 C13.0564687,8.624 14.2433125,10.2938281 14.2433125,12.2431563 C14.2433125,12.4311875 14.2322812,12.616625 14.2108125,12.7988438 L13.2061875,12.7988438 C13.2339476,12.6149173 13.2478565,12.4291658 13.2477969,12.2431563 C13.2477969,10.2235469 11.624125,8.58634375 9.62123437,8.58634375 L9.63310937,8.58634375 C9.346,8.58634375 9.11326562,8.35360938 9.11326562,8.0665 C9.11326562,7.77940625 9.346,7.54665625 9.63310937,7.54665625 L9.62123437,7.54665625 C10.6128594,7.54665625 11.4167344,6.73607813 11.4167344,5.7361875 C11.4167344,4.73628125 10.6128594,3.92571875 9.62123437,3.92571875 C9.55185937,3.92571875 9.47082812,3.93404688 9.37815625,3.95075 C9.13659375,3.99426563 8.90546875,3.83370313 8.86195312,3.59210938 C8.85996517,3.58106337 8.85839634,3.56994602 8.85725,3.55878125 C8.82604687,3.25534375 9.04209375,2.98220313 9.34457812,2.9426875 C9.450875,2.9288125 9.54309375,2.921875 9.62123437,2.921875 Z" id="Shape" fill="#F1F2F3" opacity="0.4"></path>
                    </g>
                </g>
            </g>
        </g>
    </g>
</svg>