<?xml version="1.0" encoding="UTF-8"?>
<svg width="46px" height="46px" viewBox="0 0 46 46" version="1.1" xmlns="http://www.w3.org/2000/svg" xmlns:xlink="http://www.w3.org/1999/xlink">
    <!-- Generator: Sketch 51.2 (57519) - http://www.bohemiancoding.com/sketch -->
    <defs></defs>
    <g id="享道出行logol" stroke="none" stroke-width="1" fill="none" fill-rule="evenodd">
        <g id="Group-13">
            <g id="Group-21">
                <circle id="Oval-2" fill="#1B87ED" cx="23" cy="23" r="23"></circle>
                <g id="Group-8" transform="translate(8.000000, 12.000000)" fill="#FFFFFF" fill-rule="nonzero">
                    <path d="M5.77605922,18.027027 L29.3239408,18.027027 C29.4896262,18.027027 29.6239408,18.1613416 29.6239408,18.327027 C29.6239408,18.4014184 29.5963013,18.4731565 29.5463872,18.5283169 L25.678644,22.8025796 C25.5648961,22.928283 25.4032796,23 25.2337511,23 L9.86624887,23 C9.69672042,23 9.53510388,22.928283 9.42135604,22.8025796 L5.5536128,18.5283169 C5.4424435,18.4054631 5.45191563,18.2157499 5.57476939,18.1045806 C5.62992973,18.0546665 5.70166781,18.027027 5.77605922,18.027027 Z" id="Path-4"></path>
                    <path d="M11.9919597,0 L25.4566218,1.11022302e-16 C25.6693536,7.19441013e-17 25.8661808,0.112643631 25.9739431,0.296061483 L29.7803842,6.77484954 C29.9114745,6.99797304 29.8847382,7.28000552 29.7140563,7.47452144 L24.1792379,13.7822199 C24.0653161,13.9120496 23.9009695,13.9864865 23.7282445,13.9864865 L0.942082046,13.9864865 C0.776396621,13.9864865 0.642082046,13.8521719 0.642082046,13.6864865 C0.642082046,13.6161119 0.666822662,13.5479771 0.71197689,13.4939985 L4.02012769,9.53934839 C4.13412778,9.4030697 4.30266442,9.32432432 4.48033801,9.32432432 L21.9242125,9.32432432 C22.0992674,9.32432432 22.2655924,9.24787372 22.37958,9.1150165 L24.3228363,6.85007252 C24.4888463,6.65658114 24.5144515,6.37930816 24.3866833,6.1586874 L23.8733378,5.27228002 C23.7660539,5.08702998 23.5681967,4.97297297 23.3541233,4.97297297 L8.41652335,4.97297297 C8.25083793,4.97297297 8.11652335,4.8386584 8.11652335,4.67297297 C8.11652335,4.60584765 8.1390355,4.5406616 8.18045877,4.4878419 L11.5198306,0.229737844 C11.6335682,0.0847085866 11.807651,7.46998862e-16 11.9919597,2.22044605e-16 Z" id="Path-3"></path>
                </g>
            </g>
        </g>
    </g>
</svg>